M48
; DRILL file {KiCad 6.0.11+dfsg-1} date Do 10 Aug 2023 10:53:23 CEST
; FORMAT={-:-/ absolute / metric / decimal}
; #@! TF.CreationDate,2023-08-10T10:53:23+02:00
; #@! TF.GenerationSoftware,Kicad,Pcbnew,6.0.11+dfsg-1
; #@! TF.FileFunction,Plated,1,4,PTH
FMAT,2
METRIC
; #@! TA.AperFunction,Plated,PTH,ViaDrill
T1C0.400
; #@! TA.AperFunction,Plated,PTH,ComponentDrill
T2C0.762
; #@! TA.AperFunction,Plated,PTH,ComponentDrill
T3C0.800
; #@! TA.AperFunction,Plated,PTH,ComponentDrill
T4C0.890
; #@! TA.AperFunction,Plated,PTH,ComponentDrill
T5C0.950
; #@! TA.AperFunction,Plated,PTH,ComponentDrill
T6C1.000
; #@! TA.AperFunction,Plated,PTH,ComponentDrill
T7C1.016
; #@! TA.AperFunction,Plated,PTH,ComponentDrill
T8C1.020
; #@! TA.AperFunction,Plated,PTH,ComponentDrill
T9C1.199
; #@! TA.AperFunction,Plated,PTH,ComponentDrill
T10C1.200
; #@! TA.AperFunction,Plated,PTH,ComponentDrill
T11C1.520
; #@! TA.AperFunction,Plated,PTH,ComponentDrill
T12C1.800
%
G90
G05
T1
X115.956Y-118.794
X118.844Y-120.094
X149.0Y-68.0
X149.25Y-106.5
X149.75Y-118.325
X150.5Y-104.75
X150.5Y-120.0
X153.75Y-118.25
X158.75Y-82.0
X163.75Y-76.25
X163.75Y-80.0
X164.25Y-75.25
X165.0Y-80.5
X166.25Y-105.75
X166.25Y-130.75
X166.5Y-86.75
X166.5Y-88.5
X166.5Y-90.25
X166.5Y-92.0
X167.75Y-81.25
X168.75Y-103.5
X168.75Y-105.75
X169.25Y-79.25
X169.5Y-91.75
X169.75Y-130.75
X170.0Y-86.0
X170.25Y-84.25
X172.25Y-88.5
X173.0Y-129.0
X173.75Y-88.5
X174.0Y-85.5
X176.0Y-93.5
X176.1Y-87.948
X177.25Y-77.75
X178.0Y-93.5
X179.0Y-88.5
X182.25Y-86.25
X182.5Y-97.75
X183.25Y-94.75
T2
X183.0Y-66.96
X183.0Y-69.5
X183.0Y-72.04
X183.0Y-74.58
X183.0Y-77.12
X183.0Y-79.66
T3
X140.756Y-121.25
X143.256Y-121.25
X146.0Y-113.5
X146.0Y-116.0
X157.32Y-98.28
X157.32Y-100.82
X157.32Y-123.68
X157.32Y-126.22
X159.86Y-98.28
X159.86Y-100.82
X159.86Y-123.68
X159.86Y-126.22
X162.4Y-98.28
X162.4Y-100.82
X162.4Y-123.68
X162.4Y-126.22
X164.94Y-98.28
X164.94Y-100.82
X164.94Y-123.68
X164.94Y-126.22
X167.48Y-98.28
X167.48Y-100.82
X167.48Y-123.68
X167.48Y-126.22
X170.02Y-98.28
X170.02Y-100.82
X170.02Y-123.68
X170.02Y-126.22
X172.56Y-98.28
X172.56Y-100.82
X172.56Y-123.68
X172.56Y-126.22
X175.1Y-98.28
X175.1Y-100.82
X175.1Y-123.68
X175.1Y-126.22
X177.64Y-98.28
X177.64Y-100.82
X177.64Y-123.68
X177.64Y-126.22
X180.18Y-98.28
X180.18Y-100.82
X180.18Y-123.68
X180.18Y-126.22
T4
X156.285Y-70.475
X157.555Y-73.015
X158.825Y-70.475
X160.095Y-73.015
X161.365Y-70.475
X162.635Y-73.015
X163.905Y-70.475
X165.175Y-73.015
X166.445Y-70.475
X167.715Y-73.015
T5
X132.75Y-129.0
X135.25Y-129.0
X137.75Y-129.0
X140.25Y-129.0
X142.75Y-129.0
T6
X124.55Y-112.9
X126.5Y-117.96
X126.5Y-123.04
X127.0Y-73.25
X127.0Y-78.33
X129.75Y-83.5
X134.75Y-83.5
X139.95Y-112.9
T7
X141.752Y-59.767
X141.752Y-62.307
X141.752Y-64.847
X141.752Y-67.347
X141.752Y-102.947
X141.752Y-105.487
X141.752Y-108.027
X152.42Y-77.38
X152.42Y-92.62
X154.96Y-77.38
X154.96Y-92.62
X157.5Y-77.38
X157.5Y-92.62
X160.04Y-77.38
X160.04Y-92.62
T8
X155.275Y-59.555
X155.275Y-61.585
X168.725Y-59.555
X168.725Y-61.585
X176.0Y-139.0
X178.54Y-139.0
X181.08Y-139.0
T9
X131.471Y-136.629
X131.471Y-141.628
X134.011Y-136.629
X134.011Y-141.628
X136.551Y-136.629
X136.551Y-141.628
X139.091Y-136.629
X139.091Y-141.628
X141.631Y-136.629
X141.631Y-141.628
X144.171Y-136.629
X144.171Y-141.628
X146.711Y-136.629
X146.711Y-141.628
X149.251Y-136.629
X149.251Y-141.628
X153.696Y-136.629
X153.696Y-141.628
X156.236Y-136.629
X156.236Y-141.628
X158.776Y-136.629
X158.776Y-141.628
X163.221Y-136.629
X163.221Y-141.628
X165.761Y-136.629
X165.761Y-141.628
X168.301Y-136.629
X168.301Y-141.628
X170.841Y-136.629
X170.841Y-141.628
T10
X134.5Y-117.935
X134.5Y-123.015
T11
X124.646Y-136.589
X124.646Y-141.669
X128.71Y-66.75
X133.79Y-66.75
T12
X154.125Y-67.175
X169.875Y-67.175
T0
M30
