%TF.GenerationSoftware,KiCad,Pcbnew,6.0.11+dfsg-1*%
%TF.CreationDate,2023-08-10T10:53:22+02:00*%
%TF.ProjectId,UniSeb32,556e6953-6562-4333-922e-6b696361645f,rev?*%
%TF.SameCoordinates,Original*%
%TF.FileFunction,Drillmap*%
%TF.FilePolarity,Positive*%
%FSLAX45Y45*%
G04 Gerber Fmt 4.5, Leading zero omitted, Abs format (unit mm)*
G04 Created by KiCad (PCBNEW 6.0.11+dfsg-1) date 2023-08-10 10:53:22*
%MOMM*%
%LPD*%
G01*
G04 APERTURE LIST*
%ADD10C,0.050000*%
%ADD11C,0.200000*%
%ADD12C,0.320000*%
%ADD13C,0.350000*%
G04 APERTURE END LIST*
D10*
X13375000Y-5975000D02*
G75*
G03*
X13450000Y-5975000I37500J0D01*
G01*
X12775000Y-5975000D02*
G75*
G03*
X12850000Y-5975000I37500J0D01*
G01*
X12850000Y-5675000D02*
G75*
G03*
X12775000Y-5675000I-37500J0D01*
G01*
X13450000Y-5675000D02*
G75*
G03*
X13375000Y-5675000I-37500J0D01*
G01*
X13450000Y-5975000D02*
X13450000Y-5675000D01*
X13375000Y-5675000D02*
X13375000Y-5975000D01*
X12775000Y-5675000D02*
X12775000Y-5975000D01*
X12850000Y-5975000D02*
X12850000Y-5675000D01*
X16525000Y-14950000D02*
G75*
G03*
X16450000Y-14950000I-37500J0D01*
G01*
X16450000Y-15250000D02*
G75*
G03*
X16525000Y-15250000I37500J0D01*
G01*
X15950000Y-15250000D02*
G75*
G03*
X16025000Y-15250000I37500J0D01*
G01*
X16025000Y-14950000D02*
G75*
G03*
X15950000Y-14950000I-37500J0D01*
G01*
X14250000Y-15250000D02*
G75*
G03*
X14325000Y-15250000I37500J0D01*
G01*
X13750000Y-15250000D02*
G75*
G03*
X13825000Y-15250000I37500J0D01*
G01*
X14325000Y-14950000D02*
G75*
G03*
X14250000Y-14950000I-37500J0D01*
G01*
X13825000Y-14950000D02*
G75*
G03*
X13750000Y-14950000I-37500J0D01*
G01*
X12125000Y-8325000D02*
X12650000Y-8850000D01*
X12650000Y-8850000D02*
X13750000Y-8850000D01*
X11250110Y-6500360D02*
X11250110Y-14500360D01*
X14250000Y-14950000D02*
X14250000Y-15250000D01*
X13900000Y-8737500D02*
X13900000Y-6000000D01*
X16025000Y-15250000D02*
X16025000Y-14950000D01*
X15950000Y-14950000D02*
X15950000Y-15250000D01*
X13750000Y-8925000D02*
G75*
G03*
X13750000Y-8850000I0J37500D01*
G01*
X17450110Y-14500360D02*
X18450110Y-14500360D01*
X17450110Y-5500360D02*
X12250110Y-5500360D01*
X14325000Y-15250000D02*
X14325000Y-14950000D01*
X13750000Y-14950000D02*
X13750000Y-15250000D01*
X12250110Y-6500360D02*
X11250110Y-6500360D01*
X17450110Y-15500360D02*
X17450110Y-14500360D01*
X12250110Y-14500360D02*
X12250110Y-15500360D01*
X13825000Y-6000000D02*
X13825000Y-8737500D01*
X13750000Y-8925000D02*
X12625000Y-8925000D01*
X11250110Y-14500360D02*
X12250110Y-14500360D01*
X12250110Y-15500360D02*
X17450110Y-15500360D01*
X17450110Y-6500360D02*
X18450110Y-6500360D01*
X13900000Y-6000000D02*
G75*
G03*
X13825000Y-6000000I-37500J0D01*
G01*
X12075000Y-8375000D02*
X12625000Y-8925000D01*
X13825000Y-8737500D02*
G75*
G03*
X13900000Y-8737500I37500J0D01*
G01*
X12250110Y-5500360D02*
X12250110Y-6500360D01*
X13825000Y-15250000D02*
X13825000Y-14950000D01*
X16450000Y-14950000D02*
X16450000Y-15250000D01*
X17450110Y-5500360D02*
X17450110Y-6500360D01*
X12125000Y-8325000D02*
G75*
G03*
X12075000Y-8375000I-25000J-25000D01*
G01*
X18450110Y-14500360D02*
X18450110Y-6500360D01*
X16525000Y-15250000D02*
X16525000Y-14950000D01*
D11*
D12*
X15468500Y-6252500D02*
X15788500Y-6572500D01*
X15788500Y-6252500D02*
X15468500Y-6572500D01*
X16611500Y-6252500D02*
X16931500Y-6572500D01*
X16931500Y-6252500D02*
X16611500Y-6572500D01*
D13*
X11850110Y-9350360D02*
G75*
G03*
X11850110Y-9350360I-175000J0D01*
G01*
X11850110Y-13150360D02*
G75*
G03*
X11850110Y-13150360I-175000J0D01*
G01*
X18200110Y-13150360D02*
G75*
G03*
X18200110Y-13150360I-175000J0D01*
G01*
D11*
X11505229Y-15813336D02*
X11505229Y-15613336D01*
X11552848Y-15613336D01*
X11581419Y-15622860D01*
X11600467Y-15641908D01*
X11609991Y-15660955D01*
X11619515Y-15699050D01*
X11619515Y-15727622D01*
X11609991Y-15765717D01*
X11600467Y-15784765D01*
X11581419Y-15803812D01*
X11552848Y-15813336D01*
X11505229Y-15813336D01*
X11705229Y-15813336D02*
X11705229Y-15680003D01*
X11705229Y-15718098D02*
X11714753Y-15699050D01*
X11724277Y-15689527D01*
X11743324Y-15680003D01*
X11762372Y-15680003D01*
X11829038Y-15813336D02*
X11829038Y-15680003D01*
X11829038Y-15613336D02*
X11819515Y-15622860D01*
X11829038Y-15632384D01*
X11838562Y-15622860D01*
X11829038Y-15613336D01*
X11829038Y-15632384D01*
X11952848Y-15813336D02*
X11933800Y-15803812D01*
X11924277Y-15784765D01*
X11924277Y-15613336D01*
X12057610Y-15813336D02*
X12038562Y-15803812D01*
X12029038Y-15784765D01*
X12029038Y-15613336D01*
X12286181Y-15813336D02*
X12286181Y-15613336D01*
X12352848Y-15756193D01*
X12419515Y-15613336D01*
X12419515Y-15813336D01*
X12600467Y-15813336D02*
X12600467Y-15708574D01*
X12590943Y-15689527D01*
X12571896Y-15680003D01*
X12533800Y-15680003D01*
X12514753Y-15689527D01*
X12600467Y-15803812D02*
X12581419Y-15813336D01*
X12533800Y-15813336D01*
X12514753Y-15803812D01*
X12505229Y-15784765D01*
X12505229Y-15765717D01*
X12514753Y-15746669D01*
X12533800Y-15737146D01*
X12581419Y-15737146D01*
X12600467Y-15727622D01*
X12695705Y-15680003D02*
X12695705Y-15880003D01*
X12695705Y-15689527D02*
X12714753Y-15680003D01*
X12752848Y-15680003D01*
X12771896Y-15689527D01*
X12781419Y-15699050D01*
X12790943Y-15718098D01*
X12790943Y-15775241D01*
X12781419Y-15794288D01*
X12771896Y-15803812D01*
X12752848Y-15813336D01*
X12714753Y-15813336D01*
X12695705Y-15803812D01*
X12876658Y-15794288D02*
X12886181Y-15803812D01*
X12876658Y-15813336D01*
X12867134Y-15803812D01*
X12876658Y-15794288D01*
X12876658Y-15813336D01*
X12876658Y-15689527D02*
X12886181Y-15699050D01*
X12876658Y-15708574D01*
X12867134Y-15699050D01*
X12876658Y-15689527D01*
X12876658Y-15708574D01*
X11047610Y-16042860D02*
X11247610Y-16242860D01*
X11247610Y-16042860D02*
X11047610Y-16242860D01*
X11486181Y-16033336D02*
X11609991Y-16033336D01*
X11543324Y-16109527D01*
X11571896Y-16109527D01*
X11590943Y-16119050D01*
X11600467Y-16128574D01*
X11609991Y-16147622D01*
X11609991Y-16195241D01*
X11600467Y-16214288D01*
X11590943Y-16223812D01*
X11571896Y-16233336D01*
X11514753Y-16233336D01*
X11495705Y-16223812D01*
X11486181Y-16214288D01*
X11695705Y-16214288D02*
X11705229Y-16223812D01*
X11695705Y-16233336D01*
X11686181Y-16223812D01*
X11695705Y-16214288D01*
X11695705Y-16233336D01*
X11781419Y-16052384D02*
X11790943Y-16042860D01*
X11809991Y-16033336D01*
X11857610Y-16033336D01*
X11876658Y-16042860D01*
X11886181Y-16052384D01*
X11895705Y-16071431D01*
X11895705Y-16090479D01*
X11886181Y-16119050D01*
X11771896Y-16233336D01*
X11895705Y-16233336D01*
X12019515Y-16033336D02*
X12038562Y-16033336D01*
X12057610Y-16042860D01*
X12067134Y-16052384D01*
X12076658Y-16071431D01*
X12086181Y-16109527D01*
X12086181Y-16157146D01*
X12076658Y-16195241D01*
X12067134Y-16214288D01*
X12057610Y-16223812D01*
X12038562Y-16233336D01*
X12019515Y-16233336D01*
X12000467Y-16223812D01*
X11990943Y-16214288D01*
X11981419Y-16195241D01*
X11971896Y-16157146D01*
X11971896Y-16109527D01*
X11981419Y-16071431D01*
X11990943Y-16052384D01*
X12000467Y-16042860D01*
X12019515Y-16033336D01*
X12209991Y-16033336D02*
X12229038Y-16033336D01*
X12248086Y-16042860D01*
X12257610Y-16052384D01*
X12267134Y-16071431D01*
X12276658Y-16109527D01*
X12276658Y-16157146D01*
X12267134Y-16195241D01*
X12257610Y-16214288D01*
X12248086Y-16223812D01*
X12229038Y-16233336D01*
X12209991Y-16233336D01*
X12190943Y-16223812D01*
X12181419Y-16214288D01*
X12171896Y-16195241D01*
X12162372Y-16157146D01*
X12162372Y-16109527D01*
X12171896Y-16071431D01*
X12181419Y-16052384D01*
X12190943Y-16042860D01*
X12209991Y-16033336D01*
X12362372Y-16233336D02*
X12362372Y-16100003D01*
X12362372Y-16119050D02*
X12371896Y-16109527D01*
X12390943Y-16100003D01*
X12419515Y-16100003D01*
X12438562Y-16109527D01*
X12448086Y-16128574D01*
X12448086Y-16233336D01*
X12448086Y-16128574D02*
X12457610Y-16109527D01*
X12476658Y-16100003D01*
X12505229Y-16100003D01*
X12524277Y-16109527D01*
X12533800Y-16128574D01*
X12533800Y-16233336D01*
X12629038Y-16233336D02*
X12629038Y-16100003D01*
X12629038Y-16119050D02*
X12638562Y-16109527D01*
X12657610Y-16100003D01*
X12686181Y-16100003D01*
X12705229Y-16109527D01*
X12714753Y-16128574D01*
X12714753Y-16233336D01*
X12714753Y-16128574D02*
X12724277Y-16109527D01*
X12743324Y-16100003D01*
X12771896Y-16100003D01*
X12790943Y-16109527D01*
X12800467Y-16128574D01*
X12800467Y-16233336D01*
X13190943Y-16023812D02*
X13019515Y-16280955D01*
X13448086Y-16033336D02*
X13467134Y-16033336D01*
X13486181Y-16042860D01*
X13495705Y-16052384D01*
X13505229Y-16071431D01*
X13514753Y-16109527D01*
X13514753Y-16157146D01*
X13505229Y-16195241D01*
X13495705Y-16214288D01*
X13486181Y-16223812D01*
X13467134Y-16233336D01*
X13448086Y-16233336D01*
X13429038Y-16223812D01*
X13419515Y-16214288D01*
X13409991Y-16195241D01*
X13400467Y-16157146D01*
X13400467Y-16109527D01*
X13409991Y-16071431D01*
X13419515Y-16052384D01*
X13429038Y-16042860D01*
X13448086Y-16033336D01*
X13600467Y-16214288D02*
X13609991Y-16223812D01*
X13600467Y-16233336D01*
X13590943Y-16223812D01*
X13600467Y-16214288D01*
X13600467Y-16233336D01*
X13800467Y-16233336D02*
X13686181Y-16233336D01*
X13743324Y-16233336D02*
X13743324Y-16033336D01*
X13724277Y-16061908D01*
X13705229Y-16080955D01*
X13686181Y-16090479D01*
X13876658Y-16052384D02*
X13886181Y-16042860D01*
X13905229Y-16033336D01*
X13952848Y-16033336D01*
X13971896Y-16042860D01*
X13981419Y-16052384D01*
X13990943Y-16071431D01*
X13990943Y-16090479D01*
X13981419Y-16119050D01*
X13867134Y-16233336D01*
X13990943Y-16233336D01*
X14162372Y-16033336D02*
X14124277Y-16033336D01*
X14105229Y-16042860D01*
X14095705Y-16052384D01*
X14076658Y-16080955D01*
X14067134Y-16119050D01*
X14067134Y-16195241D01*
X14076658Y-16214288D01*
X14086181Y-16223812D01*
X14105229Y-16233336D01*
X14143324Y-16233336D01*
X14162372Y-16223812D01*
X14171896Y-16214288D01*
X14181419Y-16195241D01*
X14181419Y-16147622D01*
X14171896Y-16128574D01*
X14162372Y-16119050D01*
X14143324Y-16109527D01*
X14105229Y-16109527D01*
X14086181Y-16119050D01*
X14076658Y-16128574D01*
X14067134Y-16147622D01*
X14305229Y-16033336D02*
X14324277Y-16033336D01*
X14343324Y-16042860D01*
X14352848Y-16052384D01*
X14362372Y-16071431D01*
X14371896Y-16109527D01*
X14371896Y-16157146D01*
X14362372Y-16195241D01*
X14352848Y-16214288D01*
X14343324Y-16223812D01*
X14324277Y-16233336D01*
X14305229Y-16233336D01*
X14286181Y-16223812D01*
X14276658Y-16214288D01*
X14267134Y-16195241D01*
X14257610Y-16157146D01*
X14257610Y-16109527D01*
X14267134Y-16071431D01*
X14276658Y-16052384D01*
X14286181Y-16042860D01*
X14305229Y-16033336D01*
X14448086Y-16033336D02*
X14448086Y-16071431D01*
X14524277Y-16033336D02*
X14524277Y-16071431D01*
X14819515Y-16309527D02*
X14809991Y-16300003D01*
X14790943Y-16271431D01*
X14781419Y-16252384D01*
X14771896Y-16223812D01*
X14762372Y-16176193D01*
X14762372Y-16138098D01*
X14771896Y-16090479D01*
X14781419Y-16061908D01*
X14790943Y-16042860D01*
X14809991Y-16014288D01*
X14819515Y-16004765D01*
X14886181Y-16052384D02*
X14895705Y-16042860D01*
X14914753Y-16033336D01*
X14962372Y-16033336D01*
X14981419Y-16042860D01*
X14990943Y-16052384D01*
X15000467Y-16071431D01*
X15000467Y-16090479D01*
X14990943Y-16119050D01*
X14876658Y-16233336D01*
X15000467Y-16233336D01*
X15238562Y-16233336D02*
X15238562Y-16033336D01*
X15324277Y-16233336D02*
X15324277Y-16128574D01*
X15314753Y-16109527D01*
X15295705Y-16100003D01*
X15267134Y-16100003D01*
X15248086Y-16109527D01*
X15238562Y-16119050D01*
X15448086Y-16233336D02*
X15429038Y-16223812D01*
X15419515Y-16214288D01*
X15409991Y-16195241D01*
X15409991Y-16138098D01*
X15419515Y-16119050D01*
X15429038Y-16109527D01*
X15448086Y-16100003D01*
X15476658Y-16100003D01*
X15495705Y-16109527D01*
X15505229Y-16119050D01*
X15514753Y-16138098D01*
X15514753Y-16195241D01*
X15505229Y-16214288D01*
X15495705Y-16223812D01*
X15476658Y-16233336D01*
X15448086Y-16233336D01*
X15629038Y-16233336D02*
X15609991Y-16223812D01*
X15600467Y-16204765D01*
X15600467Y-16033336D01*
X15781419Y-16223812D02*
X15762372Y-16233336D01*
X15724277Y-16233336D01*
X15705229Y-16223812D01*
X15695705Y-16204765D01*
X15695705Y-16128574D01*
X15705229Y-16109527D01*
X15724277Y-16100003D01*
X15762372Y-16100003D01*
X15781419Y-16109527D01*
X15790943Y-16128574D01*
X15790943Y-16147622D01*
X15695705Y-16166669D01*
X15867134Y-16223812D02*
X15886181Y-16233336D01*
X15924277Y-16233336D01*
X15943324Y-16223812D01*
X15952848Y-16204765D01*
X15952848Y-16195241D01*
X15943324Y-16176193D01*
X15924277Y-16166669D01*
X15895705Y-16166669D01*
X15876658Y-16157146D01*
X15867134Y-16138098D01*
X15867134Y-16128574D01*
X15876658Y-16109527D01*
X15895705Y-16100003D01*
X15924277Y-16100003D01*
X15943324Y-16109527D01*
X16019515Y-16309527D02*
X16029038Y-16300003D01*
X16048086Y-16271431D01*
X16057610Y-16252384D01*
X16067134Y-16223812D01*
X16076658Y-16176193D01*
X16076658Y-16138098D01*
X16067134Y-16090479D01*
X16057610Y-16061908D01*
X16048086Y-16042860D01*
X16029038Y-16014288D01*
X16019515Y-16004765D01*
X16381419Y-16309527D02*
X16371896Y-16300003D01*
X16352848Y-16271431D01*
X16343324Y-16252384D01*
X16333800Y-16223812D01*
X16324277Y-16176193D01*
X16324277Y-16138098D01*
X16333800Y-16090479D01*
X16343324Y-16061908D01*
X16352848Y-16042860D01*
X16371896Y-16014288D01*
X16381419Y-16004765D01*
X16457610Y-16100003D02*
X16457610Y-16233336D01*
X16457610Y-16119050D02*
X16467134Y-16109527D01*
X16486181Y-16100003D01*
X16514753Y-16100003D01*
X16533800Y-16109527D01*
X16543324Y-16128574D01*
X16543324Y-16233336D01*
X16667134Y-16233336D02*
X16648086Y-16223812D01*
X16638562Y-16214288D01*
X16629038Y-16195241D01*
X16629038Y-16138098D01*
X16638562Y-16119050D01*
X16648086Y-16109527D01*
X16667134Y-16100003D01*
X16695705Y-16100003D01*
X16714753Y-16109527D01*
X16724277Y-16119050D01*
X16733800Y-16138098D01*
X16733800Y-16195241D01*
X16724277Y-16214288D01*
X16714753Y-16223812D01*
X16695705Y-16233336D01*
X16667134Y-16233336D01*
X16790943Y-16100003D02*
X16867134Y-16100003D01*
X16819515Y-16033336D02*
X16819515Y-16204765D01*
X16829039Y-16223812D01*
X16848086Y-16233336D01*
X16867134Y-16233336D01*
X17086181Y-16100003D02*
X17086181Y-16300003D01*
X17086181Y-16109527D02*
X17105229Y-16100003D01*
X17143324Y-16100003D01*
X17162372Y-16109527D01*
X17171896Y-16119050D01*
X17181420Y-16138098D01*
X17181420Y-16195241D01*
X17171896Y-16214288D01*
X17162372Y-16223812D01*
X17143324Y-16233336D01*
X17105229Y-16233336D01*
X17086181Y-16223812D01*
X17295705Y-16233336D02*
X17276658Y-16223812D01*
X17267134Y-16204765D01*
X17267134Y-16033336D01*
X17457610Y-16233336D02*
X17457610Y-16128574D01*
X17448086Y-16109527D01*
X17429039Y-16100003D01*
X17390943Y-16100003D01*
X17371896Y-16109527D01*
X17457610Y-16223812D02*
X17438562Y-16233336D01*
X17390943Y-16233336D01*
X17371896Y-16223812D01*
X17362372Y-16204765D01*
X17362372Y-16185717D01*
X17371896Y-16166669D01*
X17390943Y-16157146D01*
X17438562Y-16157146D01*
X17457610Y-16147622D01*
X17524277Y-16100003D02*
X17600467Y-16100003D01*
X17552848Y-16033336D02*
X17552848Y-16204765D01*
X17562372Y-16223812D01*
X17581420Y-16233336D01*
X17600467Y-16233336D01*
X17743324Y-16223812D02*
X17724277Y-16233336D01*
X17686181Y-16233336D01*
X17667134Y-16223812D01*
X17657610Y-16204765D01*
X17657610Y-16128574D01*
X17667134Y-16109527D01*
X17686181Y-16100003D01*
X17724277Y-16100003D01*
X17743324Y-16109527D01*
X17752848Y-16128574D01*
X17752848Y-16147622D01*
X17657610Y-16166669D01*
X17924277Y-16233336D02*
X17924277Y-16033336D01*
X17924277Y-16223812D02*
X17905229Y-16233336D01*
X17867134Y-16233336D01*
X17848086Y-16223812D01*
X17838562Y-16214288D01*
X17829039Y-16195241D01*
X17829039Y-16138098D01*
X17838562Y-16119050D01*
X17848086Y-16109527D01*
X17867134Y-16100003D01*
X17905229Y-16100003D01*
X17924277Y-16109527D01*
X18000467Y-16309527D02*
X18009991Y-16300003D01*
X18029039Y-16271431D01*
X18038562Y-16252384D01*
X18048086Y-16223812D01*
X18057610Y-16176193D01*
X18057610Y-16138098D01*
X18048086Y-16090479D01*
X18038562Y-16061908D01*
X18029039Y-16042860D01*
X18009991Y-16014288D01*
X18000467Y-16004765D01*
X11247610Y-16462860D02*
G75*
G03*
X11247610Y-16462860I-100000J0D01*
G01*
X11486181Y-16353336D02*
X11609991Y-16353336D01*
X11543324Y-16429527D01*
X11571896Y-16429527D01*
X11590943Y-16439050D01*
X11600467Y-16448574D01*
X11609991Y-16467622D01*
X11609991Y-16515241D01*
X11600467Y-16534288D01*
X11590943Y-16543812D01*
X11571896Y-16553336D01*
X11514753Y-16553336D01*
X11495705Y-16543812D01*
X11486181Y-16534288D01*
X11695705Y-16534288D02*
X11705229Y-16543812D01*
X11695705Y-16553336D01*
X11686181Y-16543812D01*
X11695705Y-16534288D01*
X11695705Y-16553336D01*
X11886181Y-16353336D02*
X11790943Y-16353336D01*
X11781419Y-16448574D01*
X11790943Y-16439050D01*
X11809991Y-16429527D01*
X11857610Y-16429527D01*
X11876658Y-16439050D01*
X11886181Y-16448574D01*
X11895705Y-16467622D01*
X11895705Y-16515241D01*
X11886181Y-16534288D01*
X11876658Y-16543812D01*
X11857610Y-16553336D01*
X11809991Y-16553336D01*
X11790943Y-16543812D01*
X11781419Y-16534288D01*
X12019515Y-16353336D02*
X12038562Y-16353336D01*
X12057610Y-16362860D01*
X12067134Y-16372384D01*
X12076658Y-16391431D01*
X12086181Y-16429527D01*
X12086181Y-16477146D01*
X12076658Y-16515241D01*
X12067134Y-16534288D01*
X12057610Y-16543812D01*
X12038562Y-16553336D01*
X12019515Y-16553336D01*
X12000467Y-16543812D01*
X11990943Y-16534288D01*
X11981419Y-16515241D01*
X11971896Y-16477146D01*
X11971896Y-16429527D01*
X11981419Y-16391431D01*
X11990943Y-16372384D01*
X12000467Y-16362860D01*
X12019515Y-16353336D01*
X12209991Y-16353336D02*
X12229038Y-16353336D01*
X12248086Y-16362860D01*
X12257610Y-16372384D01*
X12267134Y-16391431D01*
X12276658Y-16429527D01*
X12276658Y-16477146D01*
X12267134Y-16515241D01*
X12257610Y-16534288D01*
X12248086Y-16543812D01*
X12229038Y-16553336D01*
X12209991Y-16553336D01*
X12190943Y-16543812D01*
X12181419Y-16534288D01*
X12171896Y-16515241D01*
X12162372Y-16477146D01*
X12162372Y-16429527D01*
X12171896Y-16391431D01*
X12181419Y-16372384D01*
X12190943Y-16362860D01*
X12209991Y-16353336D01*
X12362372Y-16553336D02*
X12362372Y-16420003D01*
X12362372Y-16439050D02*
X12371896Y-16429527D01*
X12390943Y-16420003D01*
X12419515Y-16420003D01*
X12438562Y-16429527D01*
X12448086Y-16448574D01*
X12448086Y-16553336D01*
X12448086Y-16448574D02*
X12457610Y-16429527D01*
X12476658Y-16420003D01*
X12505229Y-16420003D01*
X12524277Y-16429527D01*
X12533800Y-16448574D01*
X12533800Y-16553336D01*
X12629038Y-16553336D02*
X12629038Y-16420003D01*
X12629038Y-16439050D02*
X12638562Y-16429527D01*
X12657610Y-16420003D01*
X12686181Y-16420003D01*
X12705229Y-16429527D01*
X12714753Y-16448574D01*
X12714753Y-16553336D01*
X12714753Y-16448574D02*
X12724277Y-16429527D01*
X12743324Y-16420003D01*
X12771896Y-16420003D01*
X12790943Y-16429527D01*
X12800467Y-16448574D01*
X12800467Y-16553336D01*
X13190943Y-16343812D02*
X13019515Y-16600955D01*
X13448086Y-16353336D02*
X13467134Y-16353336D01*
X13486181Y-16362860D01*
X13495705Y-16372384D01*
X13505229Y-16391431D01*
X13514753Y-16429527D01*
X13514753Y-16477146D01*
X13505229Y-16515241D01*
X13495705Y-16534288D01*
X13486181Y-16543812D01*
X13467134Y-16553336D01*
X13448086Y-16553336D01*
X13429038Y-16543812D01*
X13419515Y-16534288D01*
X13409991Y-16515241D01*
X13400467Y-16477146D01*
X13400467Y-16429527D01*
X13409991Y-16391431D01*
X13419515Y-16372384D01*
X13429038Y-16362860D01*
X13448086Y-16353336D01*
X13600467Y-16534288D02*
X13609991Y-16543812D01*
X13600467Y-16553336D01*
X13590943Y-16543812D01*
X13600467Y-16534288D01*
X13600467Y-16553336D01*
X13800467Y-16553336D02*
X13686181Y-16553336D01*
X13743324Y-16553336D02*
X13743324Y-16353336D01*
X13724277Y-16381908D01*
X13705229Y-16400955D01*
X13686181Y-16410479D01*
X13867134Y-16353336D02*
X13990943Y-16353336D01*
X13924277Y-16429527D01*
X13952848Y-16429527D01*
X13971896Y-16439050D01*
X13981419Y-16448574D01*
X13990943Y-16467622D01*
X13990943Y-16515241D01*
X13981419Y-16534288D01*
X13971896Y-16543812D01*
X13952848Y-16553336D01*
X13895705Y-16553336D01*
X13876658Y-16543812D01*
X13867134Y-16534288D01*
X14057610Y-16353336D02*
X14190943Y-16353336D01*
X14105229Y-16553336D01*
X14295705Y-16439050D02*
X14276658Y-16429527D01*
X14267134Y-16420003D01*
X14257610Y-16400955D01*
X14257610Y-16391431D01*
X14267134Y-16372384D01*
X14276658Y-16362860D01*
X14295705Y-16353336D01*
X14333800Y-16353336D01*
X14352848Y-16362860D01*
X14362372Y-16372384D01*
X14371896Y-16391431D01*
X14371896Y-16400955D01*
X14362372Y-16420003D01*
X14352848Y-16429527D01*
X14333800Y-16439050D01*
X14295705Y-16439050D01*
X14276658Y-16448574D01*
X14267134Y-16458098D01*
X14257610Y-16477146D01*
X14257610Y-16515241D01*
X14267134Y-16534288D01*
X14276658Y-16543812D01*
X14295705Y-16553336D01*
X14333800Y-16553336D01*
X14352848Y-16543812D01*
X14362372Y-16534288D01*
X14371896Y-16515241D01*
X14371896Y-16477146D01*
X14362372Y-16458098D01*
X14352848Y-16448574D01*
X14333800Y-16439050D01*
X14448086Y-16353336D02*
X14448086Y-16391431D01*
X14524277Y-16353336D02*
X14524277Y-16391431D01*
X14819515Y-16629527D02*
X14809991Y-16620003D01*
X14790943Y-16591431D01*
X14781419Y-16572384D01*
X14771896Y-16543812D01*
X14762372Y-16496193D01*
X14762372Y-16458098D01*
X14771896Y-16410479D01*
X14781419Y-16381908D01*
X14790943Y-16362860D01*
X14809991Y-16334288D01*
X14819515Y-16324765D01*
X14876658Y-16353336D02*
X15000467Y-16353336D01*
X14933800Y-16429527D01*
X14962372Y-16429527D01*
X14981419Y-16439050D01*
X14990943Y-16448574D01*
X15000467Y-16467622D01*
X15000467Y-16515241D01*
X14990943Y-16534288D01*
X14981419Y-16543812D01*
X14962372Y-16553336D01*
X14905229Y-16553336D01*
X14886181Y-16543812D01*
X14876658Y-16534288D01*
X15238562Y-16553336D02*
X15238562Y-16353336D01*
X15324277Y-16553336D02*
X15324277Y-16448574D01*
X15314753Y-16429527D01*
X15295705Y-16420003D01*
X15267134Y-16420003D01*
X15248086Y-16429527D01*
X15238562Y-16439050D01*
X15448086Y-16553336D02*
X15429038Y-16543812D01*
X15419515Y-16534288D01*
X15409991Y-16515241D01*
X15409991Y-16458098D01*
X15419515Y-16439050D01*
X15429038Y-16429527D01*
X15448086Y-16420003D01*
X15476658Y-16420003D01*
X15495705Y-16429527D01*
X15505229Y-16439050D01*
X15514753Y-16458098D01*
X15514753Y-16515241D01*
X15505229Y-16534288D01*
X15495705Y-16543812D01*
X15476658Y-16553336D01*
X15448086Y-16553336D01*
X15629038Y-16553336D02*
X15609991Y-16543812D01*
X15600467Y-16524765D01*
X15600467Y-16353336D01*
X15781419Y-16543812D02*
X15762372Y-16553336D01*
X15724277Y-16553336D01*
X15705229Y-16543812D01*
X15695705Y-16524765D01*
X15695705Y-16448574D01*
X15705229Y-16429527D01*
X15724277Y-16420003D01*
X15762372Y-16420003D01*
X15781419Y-16429527D01*
X15790943Y-16448574D01*
X15790943Y-16467622D01*
X15695705Y-16486669D01*
X15867134Y-16543812D02*
X15886181Y-16553336D01*
X15924277Y-16553336D01*
X15943324Y-16543812D01*
X15952848Y-16524765D01*
X15952848Y-16515241D01*
X15943324Y-16496193D01*
X15924277Y-16486669D01*
X15895705Y-16486669D01*
X15876658Y-16477146D01*
X15867134Y-16458098D01*
X15867134Y-16448574D01*
X15876658Y-16429527D01*
X15895705Y-16420003D01*
X15924277Y-16420003D01*
X15943324Y-16429527D01*
X16019515Y-16629527D02*
X16029038Y-16620003D01*
X16048086Y-16591431D01*
X16057610Y-16572384D01*
X16067134Y-16543812D01*
X16076658Y-16496193D01*
X16076658Y-16458098D01*
X16067134Y-16410479D01*
X16057610Y-16381908D01*
X16048086Y-16362860D01*
X16029038Y-16334288D01*
X16019515Y-16324765D01*
X16381419Y-16629527D02*
X16371896Y-16620003D01*
X16352848Y-16591431D01*
X16343324Y-16572384D01*
X16333800Y-16543812D01*
X16324277Y-16496193D01*
X16324277Y-16458098D01*
X16333800Y-16410479D01*
X16343324Y-16381908D01*
X16352848Y-16362860D01*
X16371896Y-16334288D01*
X16381419Y-16324765D01*
X16457610Y-16420003D02*
X16457610Y-16553336D01*
X16457610Y-16439050D02*
X16467134Y-16429527D01*
X16486181Y-16420003D01*
X16514753Y-16420003D01*
X16533800Y-16429527D01*
X16543324Y-16448574D01*
X16543324Y-16553336D01*
X16667134Y-16553336D02*
X16648086Y-16543812D01*
X16638562Y-16534288D01*
X16629038Y-16515241D01*
X16629038Y-16458098D01*
X16638562Y-16439050D01*
X16648086Y-16429527D01*
X16667134Y-16420003D01*
X16695705Y-16420003D01*
X16714753Y-16429527D01*
X16724277Y-16439050D01*
X16733800Y-16458098D01*
X16733800Y-16515241D01*
X16724277Y-16534288D01*
X16714753Y-16543812D01*
X16695705Y-16553336D01*
X16667134Y-16553336D01*
X16790943Y-16420003D02*
X16867134Y-16420003D01*
X16819515Y-16353336D02*
X16819515Y-16524765D01*
X16829039Y-16543812D01*
X16848086Y-16553336D01*
X16867134Y-16553336D01*
X17086181Y-16420003D02*
X17086181Y-16620003D01*
X17086181Y-16429527D02*
X17105229Y-16420003D01*
X17143324Y-16420003D01*
X17162372Y-16429527D01*
X17171896Y-16439050D01*
X17181420Y-16458098D01*
X17181420Y-16515241D01*
X17171896Y-16534288D01*
X17162372Y-16543812D01*
X17143324Y-16553336D01*
X17105229Y-16553336D01*
X17086181Y-16543812D01*
X17295705Y-16553336D02*
X17276658Y-16543812D01*
X17267134Y-16524765D01*
X17267134Y-16353336D01*
X17457610Y-16553336D02*
X17457610Y-16448574D01*
X17448086Y-16429527D01*
X17429039Y-16420003D01*
X17390943Y-16420003D01*
X17371896Y-16429527D01*
X17457610Y-16543812D02*
X17438562Y-16553336D01*
X17390943Y-16553336D01*
X17371896Y-16543812D01*
X17362372Y-16524765D01*
X17362372Y-16505717D01*
X17371896Y-16486669D01*
X17390943Y-16477146D01*
X17438562Y-16477146D01*
X17457610Y-16467622D01*
X17524277Y-16420003D02*
X17600467Y-16420003D01*
X17552848Y-16353336D02*
X17552848Y-16524765D01*
X17562372Y-16543812D01*
X17581420Y-16553336D01*
X17600467Y-16553336D01*
X17743324Y-16543812D02*
X17724277Y-16553336D01*
X17686181Y-16553336D01*
X17667134Y-16543812D01*
X17657610Y-16524765D01*
X17657610Y-16448574D01*
X17667134Y-16429527D01*
X17686181Y-16420003D01*
X17724277Y-16420003D01*
X17743324Y-16429527D01*
X17752848Y-16448574D01*
X17752848Y-16467622D01*
X17657610Y-16486669D01*
X17924277Y-16553336D02*
X17924277Y-16353336D01*
X17924277Y-16543812D02*
X17905229Y-16553336D01*
X17867134Y-16553336D01*
X17848086Y-16543812D01*
X17838562Y-16534288D01*
X17829039Y-16515241D01*
X17829039Y-16458098D01*
X17838562Y-16439050D01*
X17848086Y-16429527D01*
X17867134Y-16420003D01*
X17905229Y-16420003D01*
X17924277Y-16429527D01*
X18000467Y-16629527D02*
X18009991Y-16620003D01*
X18029039Y-16591431D01*
X18038562Y-16572384D01*
X18048086Y-16543812D01*
X18057610Y-16496193D01*
X18057610Y-16458098D01*
X18048086Y-16410479D01*
X18038562Y-16381908D01*
X18029039Y-16362860D01*
X18009991Y-16334288D01*
X18000467Y-16324765D01*
M02*
