G04 #@! TF.GenerationSoftware,KiCad,Pcbnew,6.0.11+dfsg-1*
G04 #@! TF.CreationDate,2023-08-10T12:35:10+02:00*
G04 #@! TF.ProjectId,UniSeb32,556e6953-6562-4333-922e-6b696361645f,rev?*
G04 #@! TF.SameCoordinates,Original*
G04 #@! TF.FileFunction,Copper,L1,Top*
G04 #@! TF.FilePolarity,Positive*
%FSLAX46Y46*%
G04 Gerber Fmt 4.6, Leading zero omitted, Abs format (unit mm)*
G04 Created by KiCad (PCBNEW 6.0.11+dfsg-1) date 2023-08-10 12:35:10*
%MOMM*%
%LPD*%
G01*
G04 APERTURE LIST*
G04 Aperture macros list*
%AMRoundRect*
0 Rectangle with rounded corners*
0 $1 Rounding radius*
0 $2 $3 $4 $5 $6 $7 $8 $9 X,Y pos of 4 corners*
0 Add a 4 corners polygon primitive as box body*
4,1,4,$2,$3,$4,$5,$6,$7,$8,$9,$2,$3,0*
0 Add four circle primitives for the rounded corners*
1,1,$1+$1,$2,$3*
1,1,$1+$1,$4,$5*
1,1,$1+$1,$6,$7*
1,1,$1+$1,$8,$9*
0 Add four rect primitives between the rounded corners*
20,1,$1+$1,$2,$3,$4,$5,0*
20,1,$1+$1,$4,$5,$6,$7,0*
20,1,$1+$1,$6,$7,$8,$9,0*
20,1,$1+$1,$8,$9,$2,$3,0*%
G04 Aperture macros list end*
G04 #@! TA.AperFunction,ComponentPad*
%ADD10C,1.600000*%
G04 #@! TD*
G04 #@! TA.AperFunction,ComponentPad*
%ADD11RoundRect,0.248000X0.552000X0.552000X-0.552000X0.552000X-0.552000X-0.552000X0.552000X-0.552000X0*%
G04 #@! TD*
G04 #@! TA.AperFunction,ComponentPad*
%ADD12C,1.720000*%
G04 #@! TD*
G04 #@! TA.AperFunction,ComponentPad*
%ADD13C,2.200000*%
G04 #@! TD*
G04 #@! TA.AperFunction,ComponentPad*
%ADD14C,1.400000*%
G04 #@! TD*
G04 #@! TA.AperFunction,ComponentPad*
%ADD15R,3.000000X3.000000*%
G04 #@! TD*
G04 #@! TA.AperFunction,ComponentPad*
%ADD16C,3.000000*%
G04 #@! TD*
G04 #@! TA.AperFunction,ComponentPad*
%ADD17C,2.000000*%
G04 #@! TD*
G04 #@! TA.AperFunction,ComponentPad*
%ADD18R,1.600000X1.600000*%
G04 #@! TD*
G04 #@! TA.AperFunction,ComponentPad*
%ADD19O,1.524000X3.048000*%
G04 #@! TD*
G04 #@! TA.AperFunction,ComponentPad*
%ADD20C,1.524000*%
G04 #@! TD*
G04 #@! TA.AperFunction,ComponentPad*
%ADD21O,3.048000X1.524000*%
G04 #@! TD*
G04 #@! TA.AperFunction,ComponentPad*
%ADD22R,1.730000X2.030000*%
G04 #@! TD*
G04 #@! TA.AperFunction,ComponentPad*
%ADD23O,1.730000X2.030000*%
G04 #@! TD*
G04 #@! TA.AperFunction,ComponentPad*
%ADD24C,2.400000*%
G04 #@! TD*
G04 #@! TA.AperFunction,ComponentPad*
%ADD25O,2.400000X2.400000*%
G04 #@! TD*
G04 #@! TA.AperFunction,ComponentPad*
%ADD26O,1.798320X3.599180*%
G04 #@! TD*
G04 #@! TA.AperFunction,ComponentPad*
%ADD27RoundRect,0.250000X-0.600000X-0.725000X0.600000X-0.725000X0.600000X0.725000X-0.600000X0.725000X0*%
G04 #@! TD*
G04 #@! TA.AperFunction,ComponentPad*
%ADD28O,1.700000X1.950000*%
G04 #@! TD*
G04 #@! TA.AperFunction,ComponentPad*
%ADD29R,2.000000X2.300000*%
G04 #@! TD*
G04 #@! TA.AperFunction,ComponentPad*
%ADD30C,2.300000*%
G04 #@! TD*
G04 #@! TA.AperFunction,SMDPad,CuDef*
%ADD31R,3.150000X1.000000*%
G04 #@! TD*
G04 #@! TA.AperFunction,SMDPad,CuDef*
%ADD32R,1.500000X1.000000*%
G04 #@! TD*
G04 #@! TA.AperFunction,ViaPad*
%ADD33C,0.800000*%
G04 #@! TD*
G04 #@! TA.AperFunction,Conductor*
%ADD34C,0.508000*%
G04 #@! TD*
G04 #@! TA.AperFunction,Conductor*
%ADD35C,0.762000*%
G04 #@! TD*
G04 #@! TA.AperFunction,Conductor*
%ADD36C,0.254000*%
G04 #@! TD*
G04 #@! TA.AperFunction,Conductor*
%ADD37C,0.812800*%
G04 #@! TD*
G04 #@! TA.AperFunction,Conductor*
%ADD38C,0.381000*%
G04 #@! TD*
G04 #@! TA.AperFunction,Conductor*
%ADD39C,0.250000*%
G04 #@! TD*
G04 #@! TA.AperFunction,Conductor*
%ADD40C,0.635000*%
G04 #@! TD*
G04 APERTURE END LIST*
D10*
X156285000Y-70475000D03*
D11*
X157555000Y-73015000D03*
D10*
X158825000Y-70475000D03*
X160095000Y-73015000D03*
X161365000Y-70475000D03*
X162635000Y-73015000D03*
X163905000Y-70475000D03*
X165175000Y-73015000D03*
X166445000Y-70475000D03*
X167715000Y-73015000D03*
D12*
X155275000Y-61585000D03*
X155275000Y-59555000D03*
X168725000Y-61585000D03*
X168725000Y-59555000D03*
D13*
X169875000Y-67175000D03*
X154125000Y-67175000D03*
D14*
X157320000Y-126220000D03*
X157320000Y-123680000D03*
X159860000Y-126220000D03*
X159860000Y-123680000D03*
X162400000Y-126220000D03*
X162400000Y-123680000D03*
X164940000Y-126220000D03*
X164940000Y-123680000D03*
X167480000Y-126220000D03*
X167480000Y-123680000D03*
X170020000Y-126220000D03*
X170020000Y-123680000D03*
X172560000Y-126220000D03*
X172560000Y-123680000D03*
X175100000Y-126220000D03*
X175100000Y-123680000D03*
X177640000Y-126220000D03*
X177640000Y-123680000D03*
X180180000Y-126220000D03*
X180180000Y-123680000D03*
X157320000Y-100820000D03*
X157320000Y-98280000D03*
X159860000Y-100820000D03*
X159860000Y-98280000D03*
X162400000Y-100820000D03*
X162400000Y-98280000D03*
X164940000Y-100820000D03*
X164940000Y-98280000D03*
X167480000Y-100820000D03*
X167480000Y-98280000D03*
X170020000Y-100820000D03*
X170020000Y-98280000D03*
X172560000Y-100820000D03*
X172560000Y-98280000D03*
X175100000Y-100820000D03*
X175100000Y-98280000D03*
X177640000Y-100820000D03*
X177640000Y-98280000D03*
X180180000Y-100820000D03*
X180180000Y-98280000D03*
D15*
X124646100Y-141668600D03*
D16*
X124646100Y-136588600D03*
D17*
X127000000Y-73250000D03*
X127000000Y-78330000D03*
D18*
X143256243Y-121250000D03*
D10*
X140756243Y-121250000D03*
D19*
X152420000Y-92620000D03*
X154960000Y-92620000D03*
X157500000Y-92620000D03*
X160040000Y-92620000D03*
X160040000Y-77380000D03*
X157500000Y-77380000D03*
X154960000Y-77380000D03*
X152420000Y-77380000D03*
D20*
X183000000Y-79660000D03*
X183000000Y-77120000D03*
X183000000Y-74580000D03*
X183000000Y-72040000D03*
X183000000Y-69500000D03*
X183000000Y-66960000D03*
D21*
X141752500Y-59767000D03*
X141752500Y-62307000D03*
X141752500Y-64847000D03*
X141752500Y-67347000D03*
X141752500Y-102947000D03*
X141752500Y-105487000D03*
X141752500Y-108027000D03*
D22*
X176000000Y-139000000D03*
D23*
X178540000Y-139000000D03*
X181080000Y-139000000D03*
D24*
X134500000Y-123015000D03*
D25*
X134500000Y-117935000D03*
D26*
X153696100Y-136629240D03*
X156236100Y-136629240D03*
X158776100Y-136629240D03*
X153696100Y-141627960D03*
X156236100Y-141627960D03*
X158776100Y-141627960D03*
D27*
X132750000Y-129000000D03*
D28*
X135250000Y-129000000D03*
X137750000Y-129000000D03*
X140250000Y-129000000D03*
X142750000Y-129000000D03*
D17*
X126500000Y-117960000D03*
X126500000Y-123040000D03*
D29*
X134750000Y-83500000D03*
D30*
X129750000Y-83500000D03*
X139950000Y-112900000D03*
X124550000Y-112900000D03*
D31*
X172950000Y-84460000D03*
X178000000Y-84460000D03*
X172950000Y-87000000D03*
X178000000Y-87000000D03*
X172950000Y-89540000D03*
X178000000Y-89540000D03*
X172950000Y-92080000D03*
X178000000Y-92080000D03*
X172950000Y-94620000D03*
X178000000Y-94620000D03*
D32*
X117501100Y-104173600D03*
X117501100Y-105473600D03*
X117501100Y-106773600D03*
D26*
X163221100Y-136629240D03*
X165761100Y-136629240D03*
X168301100Y-136629240D03*
X170841100Y-136629240D03*
X163221100Y-141627960D03*
X165761100Y-141627960D03*
X168301100Y-141627960D03*
X170841100Y-141627960D03*
X131471100Y-136629240D03*
X134011100Y-136629240D03*
X136551100Y-136629240D03*
X139091100Y-136629240D03*
X141631100Y-136629240D03*
X144171100Y-136629240D03*
X146711100Y-136629240D03*
X149251100Y-136629240D03*
X131471100Y-141627960D03*
X134011100Y-141627960D03*
X136551100Y-141627960D03*
X139091100Y-141627960D03*
X141631100Y-141627960D03*
X144171100Y-141627960D03*
X146711100Y-141627960D03*
X149251100Y-141627960D03*
D15*
X128710000Y-66750000D03*
D16*
X133790000Y-66750000D03*
D32*
X117501100Y-118793600D03*
X117501100Y-120093600D03*
D18*
X146000000Y-113500000D03*
D10*
X146000000Y-116000000D03*
D33*
X182500000Y-97750000D03*
X172250000Y-88500000D03*
X170000000Y-86000000D03*
X169500000Y-91750000D03*
X173750000Y-88500000D03*
X115956400Y-118793600D03*
X118843600Y-120093600D03*
X149000000Y-68000000D03*
X177250000Y-77750000D03*
X153750000Y-118250000D03*
X158750000Y-82000000D03*
X173000000Y-129000000D03*
X169250000Y-79250000D03*
X166500000Y-90250000D03*
X166500000Y-92000000D03*
X167750000Y-81250000D03*
X163750000Y-80000000D03*
X163750000Y-76250000D03*
X166500000Y-88500000D03*
X182250000Y-86250000D03*
X170250000Y-84250000D03*
X183250000Y-94750000D03*
X174000000Y-85500000D03*
X166250000Y-105750000D03*
X166500000Y-86750000D03*
X164250000Y-75250000D03*
X165000000Y-80500000D03*
X150500000Y-104750000D03*
X150500000Y-120000000D03*
X149750000Y-118325104D03*
X149250000Y-106500000D03*
X169750000Y-130750000D03*
X166250000Y-130750000D03*
X178000000Y-93500000D03*
X176100000Y-87948500D03*
X179000000Y-88500000D03*
X168750000Y-103500000D03*
X168750000Y-105750000D03*
X176000000Y-93500000D03*
D34*
X172950000Y-89540000D02*
X171540000Y-89540000D01*
D35*
X172950000Y-89540000D02*
X178000000Y-89540000D01*
D36*
X172250000Y-88840000D02*
X172950000Y-89540000D01*
X173750000Y-88740000D02*
X172950000Y-89540000D01*
D34*
X172950000Y-89540000D02*
X171210000Y-89540000D01*
X171540000Y-89540000D02*
X170000000Y-88000000D01*
X169500000Y-91250000D02*
X169500000Y-91750000D01*
X170000000Y-88000000D02*
X170000000Y-86000000D01*
X171210000Y-89540000D02*
X169500000Y-91250000D01*
D36*
X173750000Y-88500000D02*
X173750000Y-88740000D01*
X172250000Y-88500000D02*
X172250000Y-88840000D01*
D37*
X122978600Y-128016100D02*
X117462500Y-122500000D01*
D35*
X161000000Y-87000000D02*
X160000000Y-88000000D01*
D37*
X168381100Y-141708600D02*
X168381100Y-136588600D01*
X168381100Y-144208600D02*
X168381100Y-141708600D01*
D38*
X140250000Y-129000000D02*
X140250000Y-126500000D01*
D35*
X152662449Y-102500000D02*
X174500000Y-102500000D01*
D37*
X115750000Y-122500000D02*
X115250000Y-122000000D01*
X121391100Y-134683600D02*
X122978600Y-133096100D01*
X122978600Y-133096100D02*
X122978600Y-128016100D01*
X152981100Y-144843600D02*
X123931100Y-144843600D01*
D38*
X140250000Y-126500000D02*
X143256243Y-123493757D01*
D35*
X172950000Y-87000000D02*
X178000000Y-87000000D01*
X150500000Y-89500000D02*
X150500000Y-101837551D01*
X151912449Y-103250000D02*
X151912449Y-121337551D01*
D38*
X143256243Y-123493757D02*
X143256243Y-121250000D01*
D35*
X151912449Y-136587551D02*
X151954138Y-136629240D01*
D37*
X153696100Y-144128600D02*
X153696100Y-141627960D01*
D35*
X180250000Y-78500000D02*
X177750000Y-76000000D01*
X175100000Y-101900000D02*
X175100000Y-100820000D01*
D37*
X153696100Y-144128600D02*
X154411100Y-144843600D01*
D35*
X168125000Y-76000000D02*
X166625000Y-77500000D01*
X151912449Y-136587551D02*
X151912449Y-139844309D01*
X151912449Y-103250000D02*
X152662449Y-102500000D01*
X151912449Y-121337551D02*
X151824898Y-121250000D01*
D37*
X115706400Y-118793600D02*
X117501100Y-118793600D01*
D35*
X150500000Y-101837551D02*
X151912449Y-103250000D01*
D37*
X154411100Y-144843600D02*
X167746100Y-144843600D01*
D35*
X178000000Y-87000000D02*
X179750000Y-87000000D01*
X180250000Y-86500000D02*
X180250000Y-78500000D01*
X163000000Y-77500000D02*
X161000000Y-79500000D01*
X166625000Y-77500000D02*
X163000000Y-77500000D01*
X177750000Y-76000000D02*
X168125000Y-76000000D01*
X151912449Y-139844309D02*
X153696100Y-141627960D01*
X151824898Y-121250000D02*
X143256243Y-121250000D01*
D37*
X153696100Y-144128600D02*
X152981100Y-144843600D01*
D35*
X152000000Y-88000000D02*
X150500000Y-89500000D01*
D37*
X117462500Y-122500000D02*
X115750000Y-122500000D01*
X167746100Y-144843600D02*
X168381100Y-144208600D01*
D35*
X151954138Y-136629240D02*
X153696100Y-136629240D01*
X160000000Y-88000000D02*
X152000000Y-88000000D01*
X174500000Y-102500000D02*
X175100000Y-101900000D01*
D37*
X168381100Y-141708600D02*
X168301100Y-141628600D01*
X115250000Y-119250000D02*
X115706400Y-118793600D01*
X115250000Y-122000000D02*
X115250000Y-119250000D01*
D35*
X151912449Y-121337551D02*
X151912449Y-136587551D01*
D37*
X121391100Y-142303600D02*
X121391100Y-134683600D01*
D35*
X161000000Y-79500000D02*
X161000000Y-87000000D01*
X179750000Y-87000000D02*
X180250000Y-86500000D01*
D37*
X123931100Y-144843600D02*
X121391100Y-142303600D01*
D35*
X129395000Y-123040000D02*
X134500000Y-117935000D01*
X117501100Y-120093600D02*
X118843600Y-120093600D01*
X126500000Y-123040000D02*
X129395000Y-123040000D01*
X178000000Y-84460000D02*
X178000000Y-78500000D01*
D39*
X158750000Y-81750000D02*
X158750000Y-82000000D01*
D37*
X153776100Y-130873600D02*
X153776100Y-123888600D01*
D35*
X154960000Y-90290000D02*
X154960000Y-92620000D01*
X162250000Y-87750000D02*
X160790000Y-89210000D01*
X160790000Y-89210000D02*
X156040000Y-89210000D01*
D37*
X158120000Y-133630000D02*
X157586100Y-133096100D01*
X158776100Y-134286100D02*
X158120000Y-133630000D01*
D39*
X149000000Y-73250000D02*
X150500000Y-74750000D01*
X158750000Y-75250000D02*
X158750000Y-81750000D01*
D37*
X153776100Y-123888600D02*
X153776100Y-118276100D01*
D36*
X171370000Y-133630000D02*
X158120000Y-133630000D01*
X173000000Y-129000000D02*
X173000000Y-132000000D01*
D37*
X158776100Y-141628600D02*
X158776100Y-134286100D01*
D39*
X158250000Y-74750000D02*
X158750000Y-75250000D01*
D37*
X157586100Y-133096100D02*
X155998600Y-133096100D01*
D35*
X178000000Y-84460000D02*
X172950000Y-84460000D01*
D37*
X155998600Y-133096100D02*
X153776100Y-130873600D01*
D35*
X162250000Y-80000000D02*
X162250000Y-87750000D01*
X156040000Y-89210000D02*
X154960000Y-90290000D01*
X177250000Y-77750000D02*
X168500000Y-77750000D01*
D36*
X173000000Y-132000000D02*
X171370000Y-133630000D01*
D35*
X168500000Y-77750000D02*
X167500000Y-78750000D01*
D39*
X150500000Y-74750000D02*
X155250000Y-74750000D01*
X155250000Y-74750000D02*
X158250000Y-74750000D01*
X149000000Y-68000000D02*
X149000000Y-73250000D01*
D37*
X153776100Y-118276100D02*
X153750000Y-118250000D01*
D35*
X178000000Y-78500000D02*
X177250000Y-77750000D01*
X163500000Y-78750000D02*
X162250000Y-80000000D01*
X167500000Y-78750000D02*
X163500000Y-78750000D01*
D39*
X166750000Y-80750000D02*
X166750000Y-82500000D01*
X169250000Y-79250000D02*
X168250000Y-80250000D01*
X167750000Y-83500000D02*
X167750000Y-89750000D01*
X167250000Y-80250000D02*
X166750000Y-80750000D01*
X167750000Y-89750000D02*
X167250000Y-90250000D01*
X166750000Y-82500000D02*
X167750000Y-83500000D01*
X167250000Y-90250000D02*
X166500000Y-90250000D01*
X168250000Y-80250000D02*
X167250000Y-80250000D01*
X167250000Y-92000000D02*
X169000000Y-90250000D01*
X169000000Y-90250000D02*
X169000000Y-82500000D01*
X169000000Y-82500000D02*
X167750000Y-81250000D01*
X166500000Y-92000000D02*
X167250000Y-92000000D01*
X163250000Y-80500000D02*
X163250000Y-87000000D01*
X158825000Y-71575000D02*
X158825000Y-70475000D01*
X163250000Y-87000000D02*
X164750000Y-88500000D01*
X163750000Y-80000000D02*
X163250000Y-80500000D01*
X161365917Y-72486314D02*
X161365917Y-73865917D01*
X158825000Y-71575000D02*
X159000000Y-71750000D01*
X159000000Y-71750000D02*
X160629603Y-71750000D01*
X161365917Y-73865917D02*
X163750000Y-76250000D01*
X164750000Y-88500000D02*
X166500000Y-88500000D01*
X160629603Y-71750000D02*
X161365917Y-72486314D01*
X182250000Y-86250000D02*
X183250000Y-87250000D01*
X183250000Y-94500000D02*
X183500000Y-94750000D01*
X183250000Y-87250000D02*
X183250000Y-94500000D01*
D40*
X127000000Y-80750000D02*
X129750000Y-83500000D01*
X127000000Y-78330000D02*
X127000000Y-80750000D01*
D37*
X120756100Y-105473600D02*
X122661100Y-107378600D01*
X122661100Y-114121100D02*
X126500000Y-117960000D01*
X122661100Y-107378600D02*
X122661100Y-114121100D01*
X117501100Y-105473600D02*
X120756100Y-105473600D01*
D39*
X175250000Y-134500000D02*
X178540000Y-137790000D01*
X178540000Y-137790000D02*
X178540000Y-139000000D01*
X174250000Y-127750000D02*
X175250000Y-128750000D01*
X175250000Y-128750000D02*
X175250000Y-134500000D01*
X167480000Y-126220000D02*
X169010000Y-127750000D01*
X169010000Y-127750000D02*
X174250000Y-127750000D01*
D36*
X166250000Y-105750000D02*
X166250000Y-124250000D01*
X181080000Y-136830000D02*
X181080000Y-139000000D01*
X167000000Y-125000000D02*
X175750000Y-125000000D01*
X175750000Y-125000000D02*
X176367592Y-125617592D01*
X176367592Y-125617592D02*
X176367592Y-132117592D01*
X166250000Y-124250000D02*
X167000000Y-125000000D01*
X176367592Y-132117592D02*
X181080000Y-136830000D01*
D34*
X150057000Y-62307000D02*
X141752500Y-62307000D01*
X151250000Y-63500000D02*
X151250000Y-72000000D01*
X151250000Y-72000000D02*
X152265000Y-73015000D01*
X152265000Y-73015000D02*
X157555000Y-73015000D01*
X150057000Y-62307000D02*
X151250000Y-63500000D01*
X163905000Y-60655000D02*
X163905000Y-70475000D01*
X152000000Y-57500000D02*
X160750000Y-57500000D01*
X149733000Y-59767000D02*
X152000000Y-57500000D01*
X149733000Y-59767000D02*
X141752500Y-59767000D01*
X160750000Y-57500000D02*
X163905000Y-60655000D01*
D39*
X166500000Y-86750000D02*
X165000000Y-86750000D01*
X164000000Y-81500000D02*
X165000000Y-80500000D01*
X164000000Y-85750000D02*
X164000000Y-81500000D01*
X165000000Y-86750000D02*
X164000000Y-85750000D01*
X164000000Y-75000000D02*
X164000000Y-72500000D01*
X161750000Y-71750000D02*
X161365000Y-71365000D01*
X164250000Y-75250000D02*
X164000000Y-75000000D01*
X164000000Y-72500000D02*
X163250000Y-71750000D01*
X161365000Y-71365000D02*
X161365000Y-70475000D01*
X163250000Y-71750000D02*
X161750000Y-71750000D01*
D40*
X128710000Y-66750000D02*
X128710000Y-71540000D01*
X128710000Y-71540000D02*
X127000000Y-73250000D01*
D39*
X178000000Y-94620000D02*
X178000000Y-95380000D01*
X165000000Y-91000000D02*
X165000000Y-94000000D01*
X178000000Y-95380000D02*
X175100000Y-98280000D01*
X165620000Y-94620000D02*
X172950000Y-94620000D01*
X171120000Y-94620000D02*
X172950000Y-94620000D01*
X170500000Y-91500000D02*
X170500000Y-94000000D01*
X181000000Y-90000000D02*
X180250000Y-90750000D01*
X171250000Y-90750000D02*
X170500000Y-91500000D01*
X157500000Y-91000000D02*
X158250000Y-90250000D01*
X183000000Y-72040000D02*
X181000000Y-74040000D01*
X172950000Y-94620000D02*
X178000000Y-94620000D01*
X165000000Y-94000000D02*
X165620000Y-94620000D01*
X181000000Y-74040000D02*
X181000000Y-90000000D01*
X180250000Y-90750000D02*
X171250000Y-90750000D01*
X164250000Y-90250000D02*
X165000000Y-91000000D01*
X150500000Y-120000000D02*
X150500000Y-104750000D01*
X158250000Y-90250000D02*
X164250000Y-90250000D01*
D36*
X157500000Y-92620000D02*
X157500000Y-91000000D01*
D39*
X170500000Y-94000000D02*
X171120000Y-94620000D01*
X181500000Y-76080000D02*
X181500000Y-90500000D01*
X171240000Y-99500000D02*
X178250000Y-99500000D01*
X178000000Y-92080000D02*
X179920000Y-92080000D01*
D36*
X149750000Y-118325104D02*
X149750000Y-107000000D01*
D39*
X180500000Y-92660000D02*
X179920000Y-92080000D01*
X180500000Y-95500000D02*
X180500000Y-92660000D01*
X172950000Y-92080000D02*
X178000000Y-92080000D01*
X178250000Y-99500000D02*
X179000000Y-98750000D01*
X179920000Y-92080000D02*
X181500000Y-90500000D01*
X164250000Y-94250000D02*
X165250000Y-95250000D01*
X179000000Y-98750000D02*
X179000000Y-97000000D01*
X163870000Y-92620000D02*
X164250000Y-93000000D01*
X179000000Y-97000000D02*
X180500000Y-95500000D01*
D36*
X149750000Y-107000000D02*
X149250000Y-106500000D01*
D39*
X170020000Y-96270000D02*
X170020000Y-98280000D01*
X160040000Y-92620000D02*
X163870000Y-92620000D01*
X181500000Y-76080000D02*
X183000000Y-74580000D01*
X170020000Y-98280000D02*
X171240000Y-99500000D01*
X169000000Y-95250000D02*
X170020000Y-96270000D01*
X165250000Y-95250000D02*
X169000000Y-95250000D01*
X164250000Y-93000000D02*
X164250000Y-94250000D01*
D37*
X124550000Y-106759700D02*
X124550000Y-112900000D01*
X125822700Y-105487000D02*
X141752500Y-105487000D01*
X121996100Y-104173600D02*
X124566100Y-106743600D01*
X124566100Y-106743600D02*
X124550000Y-106759700D01*
X117501100Y-104173600D02*
X121996100Y-104173600D01*
X124566100Y-106743600D02*
X125822700Y-105487000D01*
D36*
X166250000Y-130750000D02*
X169750000Y-130750000D01*
D39*
X168750000Y-105750000D02*
X168750000Y-103500000D01*
D40*
X134750000Y-72500000D02*
X134750000Y-83500000D01*
X133790000Y-71540000D02*
X134750000Y-72500000D01*
X133790000Y-66750000D02*
X133790000Y-71540000D01*
D37*
X120756100Y-123571100D02*
X120756100Y-108013600D01*
X124646100Y-136614000D02*
X124646100Y-127461100D01*
X120756100Y-108013600D02*
X119516100Y-106773600D01*
X124646100Y-127461100D02*
X120756100Y-123571100D01*
X119516100Y-106773600D02*
X117501100Y-106773600D01*
M02*
