G04 #@! TF.GenerationSoftware,KiCad,Pcbnew,6.0.11+dfsg-1*
G04 #@! TF.CreationDate,2023-08-10T12:35:10+02:00*
G04 #@! TF.ProjectId,UniSeb32,556e6953-6562-4333-922e-6b696361645f,rev?*
G04 #@! TF.SameCoordinates,Original*
G04 #@! TF.FileFunction,Soldermask,Bot*
G04 #@! TF.FilePolarity,Negative*
%FSLAX46Y46*%
G04 Gerber Fmt 4.6, Leading zero omitted, Abs format (unit mm)*
G04 Created by KiCad (PCBNEW 6.0.11+dfsg-1) date 2023-08-10 12:35:10*
%MOMM*%
%LPD*%
G01*
G04 APERTURE LIST*
G04 Aperture macros list*
%AMRoundRect*
0 Rectangle with rounded corners*
0 $1 Rounding radius*
0 $2 $3 $4 $5 $6 $7 $8 $9 X,Y pos of 4 corners*
0 Add a 4 corners polygon primitive as box body*
4,1,4,$2,$3,$4,$5,$6,$7,$8,$9,$2,$3,0*
0 Add four circle primitives for the rounded corners*
1,1,$1+$1,$2,$3*
1,1,$1+$1,$4,$5*
1,1,$1+$1,$6,$7*
1,1,$1+$1,$8,$9*
0 Add four rect primitives between the rounded corners*
20,1,$1+$1,$2,$3,$4,$5,0*
20,1,$1+$1,$4,$5,$6,$7,0*
20,1,$1+$1,$6,$7,$8,$9,0*
20,1,$1+$1,$8,$9,$2,$3,0*%
G04 Aperture macros list end*
%ADD10C,3.200000*%
%ADD11C,1.600000*%
%ADD12RoundRect,0.248000X0.552000X0.552000X-0.552000X0.552000X-0.552000X-0.552000X0.552000X-0.552000X0*%
%ADD13C,1.720000*%
%ADD14C,2.200000*%
%ADD15C,1.400000*%
%ADD16R,3.000000X3.000000*%
%ADD17C,3.000000*%
%ADD18C,2.000000*%
%ADD19R,1.600000X1.600000*%
%ADD20O,1.625600X3.149600*%
%ADD21C,1.524000*%
%ADD22O,3.149600X1.625600*%
%ADD23R,1.730000X2.030000*%
%ADD24O,1.730000X2.030000*%
%ADD25C,2.400000*%
%ADD26O,2.400000X2.400000*%
%ADD27C,3.500000*%
%ADD28O,1.798320X3.599180*%
%ADD29RoundRect,0.250000X-0.600000X-0.725000X0.600000X-0.725000X0.600000X0.725000X-0.600000X0.725000X0*%
%ADD30O,1.700000X1.950000*%
%ADD31R,2.000000X2.300000*%
%ADD32C,2.300000*%
%ADD33RoundRect,0.200000X-0.200000X-0.275000X0.200000X-0.275000X0.200000X0.275000X-0.200000X0.275000X0*%
%ADD34RoundRect,0.200000X0.200000X0.275000X-0.200000X0.275000X-0.200000X-0.275000X0.200000X-0.275000X0*%
%ADD35RoundRect,0.200000X0.275000X-0.200000X0.275000X0.200000X-0.275000X0.200000X-0.275000X-0.200000X0*%
%ADD36RoundRect,0.062500X-0.062500X0.350000X-0.062500X-0.350000X0.062500X-0.350000X0.062500X0.350000X0*%
%ADD37RoundRect,0.062500X-0.350000X0.062500X-0.350000X-0.062500X0.350000X-0.062500X0.350000X0.062500X0*%
%ADD38R,2.600000X2.600000*%
%ADD39RoundRect,0.225000X0.250000X-0.225000X0.250000X0.225000X-0.250000X0.225000X-0.250000X-0.225000X0*%
%ADD40RoundRect,0.225000X-0.225000X-0.250000X0.225000X-0.250000X0.225000X0.250000X-0.225000X0.250000X0*%
%ADD41RoundRect,0.225000X-0.250000X0.225000X-0.250000X-0.225000X0.250000X-0.225000X0.250000X0.225000X0*%
%ADD42RoundRect,0.218750X0.381250X-0.218750X0.381250X0.218750X-0.381250X0.218750X-0.381250X-0.218750X0*%
%ADD43RoundRect,0.200000X-0.275000X0.200000X-0.275000X-0.200000X0.275000X-0.200000X0.275000X0.200000X0*%
%ADD44RoundRect,0.125000X0.825000X0.125000X-0.825000X0.125000X-0.825000X-0.125000X0.825000X-0.125000X0*%
%ADD45R,1.500000X2.000000*%
%ADD46R,3.800000X2.000000*%
%ADD47RoundRect,0.225000X0.225000X0.250000X-0.225000X0.250000X-0.225000X-0.250000X0.225000X-0.250000X0*%
%ADD48RoundRect,0.250000X0.650000X-0.325000X0.650000X0.325000X-0.650000X0.325000X-0.650000X-0.325000X0*%
%ADD49R,1.200000X1.400000*%
G04 APERTURE END LIST*
D10*
X167715000Y-64125000D03*
X156285000Y-64125000D03*
D11*
X156285000Y-70475000D03*
D12*
X157555000Y-73015000D03*
D11*
X158825000Y-70475000D03*
X160095000Y-73015000D03*
X161365000Y-70475000D03*
X162635000Y-73015000D03*
X163905000Y-70475000D03*
X165175000Y-73015000D03*
X166445000Y-70475000D03*
X167715000Y-73015000D03*
D13*
X155275000Y-61585000D03*
X155275000Y-59555000D03*
X168725000Y-61585000D03*
X168725000Y-59555000D03*
D14*
X169875000Y-67175000D03*
X154125000Y-67175000D03*
D15*
X157320000Y-126220000D03*
X157320000Y-123680000D03*
X159860000Y-126220000D03*
X159860000Y-123680000D03*
X162400000Y-126220000D03*
X162400000Y-123680000D03*
X164940000Y-126220000D03*
X164940000Y-123680000D03*
X167480000Y-126220000D03*
X167480000Y-123680000D03*
X170020000Y-126220000D03*
X170020000Y-123680000D03*
X172560000Y-126220000D03*
X172560000Y-123680000D03*
X175100000Y-126220000D03*
X175100000Y-123680000D03*
X177640000Y-126220000D03*
X177640000Y-123680000D03*
X180180000Y-126220000D03*
X180180000Y-123680000D03*
X157320000Y-100820000D03*
X157320000Y-98280000D03*
X159860000Y-100820000D03*
X159860000Y-98280000D03*
X162400000Y-100820000D03*
X162400000Y-98280000D03*
X164940000Y-100820000D03*
X164940000Y-98280000D03*
X167480000Y-100820000D03*
X167480000Y-98280000D03*
X170020000Y-100820000D03*
X170020000Y-98280000D03*
X172560000Y-100820000D03*
X172560000Y-98280000D03*
X175100000Y-100820000D03*
X175100000Y-98280000D03*
X177640000Y-100820000D03*
X177640000Y-98280000D03*
X180180000Y-100820000D03*
X180180000Y-98280000D03*
D16*
X124646100Y-141668600D03*
D17*
X124646100Y-136588600D03*
D18*
X127000000Y-73250000D03*
X127000000Y-78330000D03*
D19*
X143256243Y-121250000D03*
D11*
X140756243Y-121250000D03*
D20*
X152420000Y-92620000D03*
X154960000Y-92620000D03*
X157500000Y-92620000D03*
X160040000Y-92620000D03*
X160040000Y-77380000D03*
X157500000Y-77380000D03*
X154960000Y-77380000D03*
X152420000Y-77380000D03*
D21*
X183000000Y-79660000D03*
X183000000Y-77120000D03*
X183000000Y-74580000D03*
X183000000Y-72040000D03*
X183000000Y-69500000D03*
X183000000Y-66960000D03*
D22*
X141752500Y-59767000D03*
X141752500Y-62307000D03*
X141752500Y-64847000D03*
X141752500Y-67347000D03*
X141752500Y-102947000D03*
X141752500Y-105487000D03*
X141752500Y-108027000D03*
D23*
X176000000Y-139000000D03*
D24*
X178540000Y-139000000D03*
X181080000Y-139000000D03*
D25*
X134500000Y-123015000D03*
D26*
X134500000Y-117935000D03*
D27*
X180251100Y-131503600D03*
D28*
X153696100Y-136629240D03*
X156236100Y-136629240D03*
X158776100Y-136629240D03*
X153696100Y-141627960D03*
X156236100Y-141627960D03*
X158776100Y-141627960D03*
D29*
X132750000Y-129000000D03*
D30*
X135250000Y-129000000D03*
X137750000Y-129000000D03*
X140250000Y-129000000D03*
X142750000Y-129000000D03*
D18*
X126500000Y-117960000D03*
X126500000Y-123040000D03*
D31*
X134750000Y-83500000D03*
D32*
X129750000Y-83500000D03*
X139950000Y-112900000D03*
X124550000Y-112900000D03*
D28*
X163221100Y-136629240D03*
X165761100Y-136629240D03*
X168301100Y-136629240D03*
X170841100Y-136629240D03*
X163221100Y-141627960D03*
X165761100Y-141627960D03*
X168301100Y-141627960D03*
X170841100Y-141627960D03*
X131471100Y-136629240D03*
X134011100Y-136629240D03*
X136551100Y-136629240D03*
X139091100Y-136629240D03*
X141631100Y-136629240D03*
X144171100Y-136629240D03*
X146711100Y-136629240D03*
X149251100Y-136629240D03*
X131471100Y-141627960D03*
X134011100Y-141627960D03*
X136551100Y-141627960D03*
X139091100Y-141627960D03*
X141631100Y-141627960D03*
X144171100Y-141627960D03*
X146711100Y-141627960D03*
X149251100Y-141627960D03*
D16*
X128710000Y-66750000D03*
D17*
X133790000Y-66750000D03*
D19*
X146000000Y-113500000D03*
D11*
X146000000Y-116000000D03*
D27*
X116751100Y-131503600D03*
X116751100Y-93503600D03*
D33*
X163675000Y-90250000D03*
X165325000Y-90250000D03*
D34*
X175900000Y-129000000D03*
X174250000Y-129000000D03*
D35*
X139000000Y-105825000D03*
X139000000Y-104175000D03*
D36*
X171750000Y-87412500D03*
X172250000Y-87412500D03*
X172750000Y-87412500D03*
X173250000Y-87412500D03*
X173750000Y-87412500D03*
X174250000Y-87412500D03*
D37*
X174937500Y-88100000D03*
X174937500Y-88600000D03*
X174937500Y-89100000D03*
X174937500Y-89600000D03*
X174937500Y-90100000D03*
X174937500Y-90600000D03*
D36*
X174250000Y-91287500D03*
X173750000Y-91287500D03*
X173250000Y-91287500D03*
X172750000Y-91287500D03*
X172250000Y-91287500D03*
X171750000Y-91287500D03*
D37*
X171062500Y-90600000D03*
X171062500Y-90100000D03*
X171062500Y-89600000D03*
X171062500Y-89100000D03*
X171062500Y-88600000D03*
X171062500Y-88100000D03*
D38*
X173000000Y-89350000D03*
D39*
X159500000Y-68275000D03*
X159500000Y-66725000D03*
D40*
X167475000Y-94250000D03*
X169025000Y-94250000D03*
D41*
X169000000Y-75125000D03*
X169000000Y-76675000D03*
X163500000Y-66725000D03*
X163500000Y-68275000D03*
D33*
X163675000Y-92000000D03*
X165325000Y-92000000D03*
X175425000Y-104250000D03*
X177075000Y-104250000D03*
D40*
X178975000Y-86000000D03*
X180525000Y-86000000D03*
D33*
X180425000Y-89500000D03*
X182075000Y-89500000D03*
D34*
X182075000Y-91250000D03*
X180425000Y-91250000D03*
D42*
X159500000Y-89625000D03*
X159500000Y-87500000D03*
D40*
X178975000Y-84250000D03*
X180525000Y-84250000D03*
D33*
X163675000Y-88500000D03*
X165325000Y-88500000D03*
D43*
X162500000Y-79675000D03*
X162500000Y-81325000D03*
D44*
X153466100Y-123423600D03*
X153466100Y-124073600D03*
X153466100Y-124723600D03*
X153466100Y-125373600D03*
X153466100Y-126023600D03*
X153466100Y-126673600D03*
X153466100Y-127323600D03*
X153466100Y-127973600D03*
X153466100Y-128623600D03*
X153466100Y-129273600D03*
X146466100Y-129273600D03*
X146466100Y-128623600D03*
X146466100Y-127973600D03*
X146466100Y-127323600D03*
X146466100Y-126673600D03*
X146466100Y-126023600D03*
X146466100Y-125373600D03*
X146466100Y-124723600D03*
X146466100Y-124073600D03*
X146466100Y-123423600D03*
D45*
X134300000Y-108150000D03*
D46*
X132000000Y-101850000D03*
D45*
X132000000Y-108150000D03*
X129700000Y-108150000D03*
D47*
X165275000Y-83250000D03*
X163725000Y-83250000D03*
D39*
X171750000Y-82025000D03*
X171750000Y-80475000D03*
X156500000Y-89275000D03*
X156500000Y-87725000D03*
D43*
X160500000Y-61175000D03*
X160500000Y-62825000D03*
D48*
X153250000Y-88975000D03*
X153250000Y-86025000D03*
D39*
X177750000Y-82025000D03*
X177750000Y-80475000D03*
D49*
X173900000Y-82350000D03*
X173900000Y-80150000D03*
X175600000Y-80150000D03*
X175600000Y-82350000D03*
D33*
X180425000Y-94750000D03*
X182075000Y-94750000D03*
X180425000Y-93000000D03*
X182075000Y-93000000D03*
D41*
X166250000Y-75125000D03*
X166250000Y-76675000D03*
D43*
X162500000Y-61175000D03*
X162500000Y-62825000D03*
D41*
X161480000Y-66725000D03*
X161480000Y-68275000D03*
D34*
X165325000Y-85000000D03*
X163675000Y-85000000D03*
D33*
X180425000Y-87750000D03*
X182075000Y-87750000D03*
X163675000Y-86750000D03*
X165325000Y-86750000D03*
X170000000Y-129000000D03*
X171650000Y-129000000D03*
D35*
X139000000Y-109325000D03*
X139000000Y-107675000D03*
M02*
