G04 #@! TF.GenerationSoftware,KiCad,Pcbnew,6.0.11+dfsg-1*
G04 #@! TF.CreationDate,2023-08-10T12:35:10+02:00*
G04 #@! TF.ProjectId,UniSeb32,556e6953-6562-4333-922e-6b696361645f,rev?*
G04 #@! TF.SameCoordinates,Original*
G04 #@! TF.FileFunction,Profile,NP*
%FSLAX46Y46*%
G04 Gerber Fmt 4.6, Leading zero omitted, Abs format (unit mm)*
G04 Created by KiCad (PCBNEW 6.0.11+dfsg-1) date 2023-08-10 12:35:10*
%MOMM*%
%LPD*%
G01*
G04 APERTURE LIST*
G04 #@! TA.AperFunction,Profile*
%ADD10C,0.050000*%
G04 #@! TD*
G04 APERTURE END LIST*
D10*
X121250000Y-83250000D02*
X126500000Y-88500000D01*
X134500000Y-59750000D02*
X134500000Y-56750000D01*
X126500000Y-88500000D02*
X137500000Y-88500000D01*
X112501100Y-65003600D02*
X112501100Y-145003600D01*
X142500000Y-149500000D02*
X142500000Y-152500000D01*
X139000000Y-87375000D02*
X139000000Y-60000000D01*
X164500000Y-152500000D02*
G75*
G03*
X165250000Y-152500000I375000J0D01*
G01*
X142500000Y-152500000D02*
G75*
G03*
X143250000Y-152500000I375000J0D01*
G01*
X128500000Y-56750000D02*
G75*
G03*
X127750000Y-56750000I-375000J0D01*
G01*
X160250000Y-152500000D02*
X160250000Y-149500000D01*
X137500000Y-152500000D02*
G75*
G03*
X138250000Y-152500000I375000J0D01*
G01*
X159500000Y-149500000D02*
X159500000Y-152500000D01*
X137500000Y-89250000D02*
G75*
G03*
X137500000Y-88500000I0J375000D01*
G01*
X174501100Y-145003600D02*
X184501100Y-145003600D01*
X174501100Y-55003600D02*
X122501100Y-55003600D01*
X127750000Y-59750000D02*
G75*
G03*
X128500000Y-59750000I375000J0D01*
G01*
X128500000Y-59750000D02*
X128500000Y-56750000D01*
X143250000Y-149500000D02*
G75*
G03*
X142500000Y-149500000I-375000J0D01*
G01*
X143250000Y-152500000D02*
X143250000Y-149500000D01*
X137500000Y-149500000D02*
X137500000Y-152500000D01*
X122501100Y-65003600D02*
X112501100Y-65003600D01*
X174501100Y-155003600D02*
X174501100Y-145003600D01*
X122501100Y-145003600D02*
X122501100Y-155003600D01*
X138250000Y-60000000D02*
X138250000Y-87375000D01*
X133750000Y-59750000D02*
G75*
G03*
X134500000Y-59750000I375000J0D01*
G01*
X137500000Y-89250000D02*
X126250000Y-89250000D01*
X112501100Y-145003600D02*
X122501100Y-145003600D01*
X122501100Y-155003600D02*
X174501100Y-155003600D01*
X127750000Y-56750000D02*
X127750000Y-59750000D01*
X174501100Y-65003600D02*
X184501100Y-65003600D01*
X138250000Y-149500000D02*
G75*
G03*
X137500000Y-149500000I-375000J0D01*
G01*
X139000000Y-60000000D02*
G75*
G03*
X138250000Y-60000000I-375000J0D01*
G01*
X120750000Y-83750000D02*
X126250000Y-89250000D01*
X165250000Y-149500000D02*
G75*
G03*
X164500000Y-149500000I-375000J0D01*
G01*
X138250000Y-87375000D02*
G75*
G03*
X139000000Y-87375000I375000J0D01*
G01*
X122501100Y-55003600D02*
X122501100Y-65003600D01*
X138250000Y-152500000D02*
X138250000Y-149500000D01*
X164500000Y-149500000D02*
X164500000Y-152500000D01*
X174501100Y-55003600D02*
X174501100Y-65003600D01*
X159500000Y-152500000D02*
G75*
G03*
X160250000Y-152500000I375000J0D01*
G01*
X121250000Y-83250000D02*
G75*
G03*
X120750000Y-83750000I-250000J-250000D01*
G01*
X184501100Y-145003600D02*
X184501100Y-65003600D01*
X160250000Y-149500000D02*
G75*
G03*
X159500000Y-149500000I-375000J0D01*
G01*
X133750000Y-56750000D02*
X133750000Y-59750000D01*
X134500000Y-56750000D02*
G75*
G03*
X133750000Y-56750000I-375000J0D01*
G01*
X165250000Y-152500000D02*
X165250000Y-149500000D01*
M02*
