G04 #@! TF.GenerationSoftware,KiCad,Pcbnew,6.0.11+dfsg-1*
G04 #@! TF.CreationDate,2023-08-10T12:35:10+02:00*
G04 #@! TF.ProjectId,UniSeb32,556e6953-6562-4333-922e-6b696361645f,rev?*
G04 #@! TF.SameCoordinates,Original*
G04 #@! TF.FileFunction,Copper,L3,Inr*
G04 #@! TF.FilePolarity,Positive*
%FSLAX46Y46*%
G04 Gerber Fmt 4.6, Leading zero omitted, Abs format (unit mm)*
G04 Created by KiCad (PCBNEW 6.0.11+dfsg-1) date 2023-08-10 12:35:10*
%MOMM*%
%LPD*%
G01*
G04 APERTURE LIST*
G04 Aperture macros list*
%AMRoundRect*
0 Rectangle with rounded corners*
0 $1 Rounding radius*
0 $2 $3 $4 $5 $6 $7 $8 $9 X,Y pos of 4 corners*
0 Add a 4 corners polygon primitive as box body*
4,1,4,$2,$3,$4,$5,$6,$7,$8,$9,$2,$3,0*
0 Add four circle primitives for the rounded corners*
1,1,$1+$1,$2,$3*
1,1,$1+$1,$4,$5*
1,1,$1+$1,$6,$7*
1,1,$1+$1,$8,$9*
0 Add four rect primitives between the rounded corners*
20,1,$1+$1,$2,$3,$4,$5,0*
20,1,$1+$1,$4,$5,$6,$7,0*
20,1,$1+$1,$6,$7,$8,$9,0*
20,1,$1+$1,$8,$9,$2,$3,0*%
G04 Aperture macros list end*
G04 #@! TA.AperFunction,ComponentPad*
%ADD10C,1.600000*%
G04 #@! TD*
G04 #@! TA.AperFunction,ComponentPad*
%ADD11RoundRect,0.248000X0.552000X0.552000X-0.552000X0.552000X-0.552000X-0.552000X0.552000X-0.552000X0*%
G04 #@! TD*
G04 #@! TA.AperFunction,ComponentPad*
%ADD12C,1.720000*%
G04 #@! TD*
G04 #@! TA.AperFunction,ComponentPad*
%ADD13C,2.200000*%
G04 #@! TD*
G04 #@! TA.AperFunction,ComponentPad*
%ADD14C,1.400000*%
G04 #@! TD*
G04 #@! TA.AperFunction,ComponentPad*
%ADD15R,3.000000X3.000000*%
G04 #@! TD*
G04 #@! TA.AperFunction,ComponentPad*
%ADD16C,3.000000*%
G04 #@! TD*
G04 #@! TA.AperFunction,ComponentPad*
%ADD17C,2.000000*%
G04 #@! TD*
G04 #@! TA.AperFunction,ComponentPad*
%ADD18R,1.600000X1.600000*%
G04 #@! TD*
G04 #@! TA.AperFunction,ComponentPad*
%ADD19O,1.524000X3.048000*%
G04 #@! TD*
G04 #@! TA.AperFunction,ComponentPad*
%ADD20C,1.524000*%
G04 #@! TD*
G04 #@! TA.AperFunction,ComponentPad*
%ADD21O,3.048000X1.524000*%
G04 #@! TD*
G04 #@! TA.AperFunction,ComponentPad*
%ADD22R,1.730000X2.030000*%
G04 #@! TD*
G04 #@! TA.AperFunction,ComponentPad*
%ADD23O,1.730000X2.030000*%
G04 #@! TD*
G04 #@! TA.AperFunction,ComponentPad*
%ADD24C,2.400000*%
G04 #@! TD*
G04 #@! TA.AperFunction,ComponentPad*
%ADD25O,2.400000X2.400000*%
G04 #@! TD*
G04 #@! TA.AperFunction,ComponentPad*
%ADD26O,1.798320X3.599180*%
G04 #@! TD*
G04 #@! TA.AperFunction,ComponentPad*
%ADD27RoundRect,0.250000X-0.600000X-0.725000X0.600000X-0.725000X0.600000X0.725000X-0.600000X0.725000X0*%
G04 #@! TD*
G04 #@! TA.AperFunction,ComponentPad*
%ADD28O,1.700000X1.950000*%
G04 #@! TD*
G04 #@! TA.AperFunction,ComponentPad*
%ADD29R,2.000000X2.300000*%
G04 #@! TD*
G04 #@! TA.AperFunction,ComponentPad*
%ADD30C,2.300000*%
G04 #@! TD*
G04 #@! TA.AperFunction,ViaPad*
%ADD31C,0.800000*%
G04 #@! TD*
G04 #@! TA.AperFunction,Conductor*
%ADD32C,0.250000*%
G04 #@! TD*
G04 #@! TA.AperFunction,Conductor*
%ADD33C,0.254000*%
G04 #@! TD*
G04 APERTURE END LIST*
D10*
X156285000Y-70475000D03*
D11*
X157555000Y-73015000D03*
D10*
X158825000Y-70475000D03*
X160095000Y-73015000D03*
X161365000Y-70475000D03*
X162635000Y-73015000D03*
X163905000Y-70475000D03*
X165175000Y-73015000D03*
X166445000Y-70475000D03*
X167715000Y-73015000D03*
D12*
X155275000Y-61585000D03*
X155275000Y-59555000D03*
X168725000Y-61585000D03*
X168725000Y-59555000D03*
D13*
X169875000Y-67175000D03*
X154125000Y-67175000D03*
D14*
X157320000Y-126220000D03*
X157320000Y-123680000D03*
X159860000Y-126220000D03*
X159860000Y-123680000D03*
X162400000Y-126220000D03*
X162400000Y-123680000D03*
X164940000Y-126220000D03*
X164940000Y-123680000D03*
X167480000Y-126220000D03*
X167480000Y-123680000D03*
X170020000Y-126220000D03*
X170020000Y-123680000D03*
X172560000Y-126220000D03*
X172560000Y-123680000D03*
X175100000Y-126220000D03*
X175100000Y-123680000D03*
X177640000Y-126220000D03*
X177640000Y-123680000D03*
X180180000Y-126220000D03*
X180180000Y-123680000D03*
X157320000Y-100820000D03*
X157320000Y-98280000D03*
X159860000Y-100820000D03*
X159860000Y-98280000D03*
X162400000Y-100820000D03*
X162400000Y-98280000D03*
X164940000Y-100820000D03*
X164940000Y-98280000D03*
X167480000Y-100820000D03*
X167480000Y-98280000D03*
X170020000Y-100820000D03*
X170020000Y-98280000D03*
X172560000Y-100820000D03*
X172560000Y-98280000D03*
X175100000Y-100820000D03*
X175100000Y-98280000D03*
X177640000Y-100820000D03*
X177640000Y-98280000D03*
X180180000Y-100820000D03*
X180180000Y-98280000D03*
D15*
X124646100Y-141668600D03*
D16*
X124646100Y-136588600D03*
D17*
X127000000Y-73250000D03*
X127000000Y-78330000D03*
D18*
X143256243Y-121250000D03*
D10*
X140756243Y-121250000D03*
D19*
X152420000Y-92620000D03*
X154960000Y-92620000D03*
X157500000Y-92620000D03*
X160040000Y-92620000D03*
X160040000Y-77380000D03*
X157500000Y-77380000D03*
X154960000Y-77380000D03*
X152420000Y-77380000D03*
D20*
X183000000Y-79660000D03*
X183000000Y-77120000D03*
X183000000Y-74580000D03*
X183000000Y-72040000D03*
X183000000Y-69500000D03*
X183000000Y-66960000D03*
D21*
X141752500Y-59767000D03*
X141752500Y-62307000D03*
X141752500Y-64847000D03*
X141752500Y-67347000D03*
X141752500Y-102947000D03*
X141752500Y-105487000D03*
X141752500Y-108027000D03*
D22*
X176000000Y-139000000D03*
D23*
X178540000Y-139000000D03*
X181080000Y-139000000D03*
D24*
X134500000Y-123015000D03*
D25*
X134500000Y-117935000D03*
D26*
X153696100Y-136629240D03*
X156236100Y-136629240D03*
X158776100Y-136629240D03*
X153696100Y-141627960D03*
X156236100Y-141627960D03*
X158776100Y-141627960D03*
D27*
X132750000Y-129000000D03*
D28*
X135250000Y-129000000D03*
X137750000Y-129000000D03*
X140250000Y-129000000D03*
X142750000Y-129000000D03*
D17*
X126500000Y-117960000D03*
X126500000Y-123040000D03*
D29*
X134750000Y-83500000D03*
D30*
X129750000Y-83500000D03*
X139950000Y-112900000D03*
X124550000Y-112900000D03*
D26*
X163221100Y-136629240D03*
X165761100Y-136629240D03*
X168301100Y-136629240D03*
X170841100Y-136629240D03*
X163221100Y-141627960D03*
X165761100Y-141627960D03*
X168301100Y-141627960D03*
X170841100Y-141627960D03*
X131471100Y-136629240D03*
X134011100Y-136629240D03*
X136551100Y-136629240D03*
X139091100Y-136629240D03*
X141631100Y-136629240D03*
X144171100Y-136629240D03*
X146711100Y-136629240D03*
X149251100Y-136629240D03*
X131471100Y-141627960D03*
X134011100Y-141627960D03*
X136551100Y-141627960D03*
X139091100Y-141627960D03*
X141631100Y-141627960D03*
X144171100Y-141627960D03*
X146711100Y-141627960D03*
X149251100Y-141627960D03*
D15*
X128710000Y-66750000D03*
D16*
X133790000Y-66750000D03*
D18*
X146000000Y-113500000D03*
D10*
X146000000Y-116000000D03*
D31*
X182500000Y-97750000D03*
X172250000Y-88500000D03*
X170000000Y-86000000D03*
X169500000Y-91750000D03*
X173750000Y-88500000D03*
X115956400Y-118793600D03*
X118843600Y-120093600D03*
X149000000Y-68000000D03*
X177250000Y-77750000D03*
X153750000Y-118250000D03*
X158750000Y-82000000D03*
X173000000Y-129000000D03*
X169250000Y-79250000D03*
X166500000Y-90250000D03*
X166500000Y-92000000D03*
X167750000Y-81250000D03*
X163750000Y-80000000D03*
X163750000Y-76250000D03*
X166500000Y-88500000D03*
X182250000Y-86250000D03*
X170250000Y-84250000D03*
X183250000Y-94750000D03*
X174000000Y-85500000D03*
X166250000Y-105750000D03*
X166500000Y-86750000D03*
X164250000Y-75250000D03*
X165000000Y-80500000D03*
X150500000Y-104750000D03*
X150500000Y-120000000D03*
X149750000Y-118325104D03*
X149250000Y-106500000D03*
X169750000Y-130750000D03*
X166250000Y-130750000D03*
X178000000Y-93500000D03*
X176100000Y-87948500D03*
X179000000Y-88500000D03*
X168750000Y-103500000D03*
X168750000Y-105750000D03*
X176000000Y-93500000D03*
D32*
X168750000Y-90750000D02*
X168750000Y-99550000D01*
X168750000Y-99550000D02*
X167480000Y-100820000D01*
X174000000Y-85500000D02*
X168750000Y-90750000D01*
D33*
X165250000Y-112750000D02*
X165250000Y-102750000D01*
X132750000Y-129000000D02*
X136500000Y-125250000D01*
X136500000Y-125250000D02*
X152750000Y-125250000D01*
X166250000Y-101750000D02*
X166250000Y-99510000D01*
X166250000Y-99510000D02*
X167480000Y-98280000D01*
X165250000Y-102750000D02*
X166250000Y-101750000D01*
X152750000Y-125250000D02*
X165250000Y-112750000D01*
X135654000Y-131404000D02*
X162596000Y-131404000D01*
X135250000Y-129000000D02*
X135250000Y-131000000D01*
X171280000Y-127500000D02*
X172560000Y-126220000D01*
X162596000Y-131404000D02*
X166500000Y-127500000D01*
X135250000Y-131000000D02*
X135654000Y-131404000D01*
X166500000Y-127500000D02*
X171280000Y-127500000D01*
M02*
