G04 #@! TF.GenerationSoftware,KiCad,Pcbnew,6.0.11+dfsg-1*
G04 #@! TF.CreationDate,2023-08-10T12:35:10+02:00*
G04 #@! TF.ProjectId,UniSeb32,556e6953-6562-4333-922e-6b696361645f,rev?*
G04 #@! TF.SameCoordinates,Original*
G04 #@! TF.FileFunction,Legend,Bot*
G04 #@! TF.FilePolarity,Positive*
%FSLAX46Y46*%
G04 Gerber Fmt 4.6, Leading zero omitted, Abs format (unit mm)*
G04 Created by KiCad (PCBNEW 6.0.11+dfsg-1) date 2023-08-10 12:35:10*
%MOMM*%
%LPD*%
G01*
G04 APERTURE LIST*
G04 Aperture macros list*
%AMRoundRect*
0 Rectangle with rounded corners*
0 $1 Rounding radius*
0 $2 $3 $4 $5 $6 $7 $8 $9 X,Y pos of 4 corners*
0 Add a 4 corners polygon primitive as box body*
4,1,4,$2,$3,$4,$5,$6,$7,$8,$9,$2,$3,0*
0 Add four circle primitives for the rounded corners*
1,1,$1+$1,$2,$3*
1,1,$1+$1,$4,$5*
1,1,$1+$1,$6,$7*
1,1,$1+$1,$8,$9*
0 Add four rect primitives between the rounded corners*
20,1,$1+$1,$2,$3,$4,$5,0*
20,1,$1+$1,$4,$5,$6,$7,0*
20,1,$1+$1,$6,$7,$8,$9,0*
20,1,$1+$1,$8,$9,$2,$3,0*%
G04 Aperture macros list end*
%ADD10C,0.142240*%
%ADD11C,0.150000*%
%ADD12C,0.120000*%
%ADD13C,3.200000*%
%ADD14C,1.600000*%
%ADD15RoundRect,0.248000X0.552000X0.552000X-0.552000X0.552000X-0.552000X-0.552000X0.552000X-0.552000X0*%
%ADD16C,1.720000*%
%ADD17C,2.200000*%
%ADD18C,1.400000*%
%ADD19R,3.000000X3.000000*%
%ADD20C,3.000000*%
%ADD21C,2.000000*%
%ADD22R,1.600000X1.600000*%
%ADD23O,1.625600X3.149600*%
%ADD24C,1.524000*%
%ADD25O,3.149600X1.625600*%
%ADD26R,1.730000X2.030000*%
%ADD27O,1.730000X2.030000*%
%ADD28C,2.400000*%
%ADD29O,2.400000X2.400000*%
%ADD30C,3.500000*%
%ADD31O,1.798320X3.599180*%
%ADD32RoundRect,0.250000X-0.600000X-0.725000X0.600000X-0.725000X0.600000X0.725000X-0.600000X0.725000X0*%
%ADD33O,1.700000X1.950000*%
%ADD34R,2.000000X2.300000*%
%ADD35C,2.300000*%
%ADD36RoundRect,0.200000X-0.200000X-0.275000X0.200000X-0.275000X0.200000X0.275000X-0.200000X0.275000X0*%
%ADD37RoundRect,0.200000X0.200000X0.275000X-0.200000X0.275000X-0.200000X-0.275000X0.200000X-0.275000X0*%
%ADD38RoundRect,0.200000X0.275000X-0.200000X0.275000X0.200000X-0.275000X0.200000X-0.275000X-0.200000X0*%
%ADD39RoundRect,0.062500X-0.062500X0.350000X-0.062500X-0.350000X0.062500X-0.350000X0.062500X0.350000X0*%
%ADD40RoundRect,0.062500X-0.350000X0.062500X-0.350000X-0.062500X0.350000X-0.062500X0.350000X0.062500X0*%
%ADD41R,2.600000X2.600000*%
%ADD42RoundRect,0.225000X0.250000X-0.225000X0.250000X0.225000X-0.250000X0.225000X-0.250000X-0.225000X0*%
%ADD43RoundRect,0.225000X-0.225000X-0.250000X0.225000X-0.250000X0.225000X0.250000X-0.225000X0.250000X0*%
%ADD44RoundRect,0.225000X-0.250000X0.225000X-0.250000X-0.225000X0.250000X-0.225000X0.250000X0.225000X0*%
%ADD45RoundRect,0.218750X0.381250X-0.218750X0.381250X0.218750X-0.381250X0.218750X-0.381250X-0.218750X0*%
%ADD46RoundRect,0.200000X-0.275000X0.200000X-0.275000X-0.200000X0.275000X-0.200000X0.275000X0.200000X0*%
%ADD47RoundRect,0.125000X0.825000X0.125000X-0.825000X0.125000X-0.825000X-0.125000X0.825000X-0.125000X0*%
%ADD48R,1.500000X2.000000*%
%ADD49R,3.800000X2.000000*%
%ADD50RoundRect,0.225000X0.225000X0.250000X-0.225000X0.250000X-0.225000X-0.250000X0.225000X-0.250000X0*%
%ADD51RoundRect,0.250000X0.650000X-0.325000X0.650000X0.325000X-0.650000X0.325000X-0.650000X-0.325000X0*%
%ADD52R,1.200000X1.400000*%
G04 APERTURE END LIST*
D10*
X152425497Y-120587446D02*
X152425497Y-120976913D01*
X152814964Y-120821126D02*
X152425497Y-120976913D01*
X152036030Y-120821126D01*
X152659177Y-121288486D02*
X152425497Y-120976913D01*
X152191817Y-121288486D01*
D11*
X168166666Y-90702380D02*
X168500000Y-90226190D01*
X168738095Y-90702380D02*
X168738095Y-89702380D01*
X168357142Y-89702380D01*
X168261904Y-89750000D01*
X168214285Y-89797619D01*
X168166666Y-89892857D01*
X168166666Y-90035714D01*
X168214285Y-90130952D01*
X168261904Y-90178571D01*
X168357142Y-90226190D01*
X168738095Y-90226190D01*
X167690476Y-90702380D02*
X167500000Y-90702380D01*
X167404761Y-90654761D01*
X167357142Y-90607142D01*
X167261904Y-90464285D01*
X167214285Y-90273809D01*
X167214285Y-89892857D01*
X167261904Y-89797619D01*
X167309523Y-89750000D01*
X167404761Y-89702380D01*
X167595238Y-89702380D01*
X167690476Y-89750000D01*
X167738095Y-89797619D01*
X167785714Y-89892857D01*
X167785714Y-90130952D01*
X167738095Y-90226190D01*
X167690476Y-90273809D01*
X167595238Y-90321428D01*
X167404761Y-90321428D01*
X167309523Y-90273809D01*
X167261904Y-90226190D01*
X167214285Y-90130952D01*
X175241666Y-130952380D02*
X175575000Y-130476190D01*
X175813095Y-130952380D02*
X175813095Y-129952380D01*
X175432142Y-129952380D01*
X175336904Y-130000000D01*
X175289285Y-130047619D01*
X175241666Y-130142857D01*
X175241666Y-130285714D01*
X175289285Y-130380952D01*
X175336904Y-130428571D01*
X175432142Y-130476190D01*
X175813095Y-130476190D01*
X174336904Y-129952380D02*
X174813095Y-129952380D01*
X174860714Y-130428571D01*
X174813095Y-130380952D01*
X174717857Y-130333333D01*
X174479761Y-130333333D01*
X174384523Y-130380952D01*
X174336904Y-130428571D01*
X174289285Y-130523809D01*
X174289285Y-130761904D01*
X174336904Y-130857142D01*
X174384523Y-130904761D01*
X174479761Y-130952380D01*
X174717857Y-130952380D01*
X174813095Y-130904761D01*
X174860714Y-130857142D01*
X137952380Y-104833333D02*
X137476190Y-104500000D01*
X137952380Y-104261904D02*
X136952380Y-104261904D01*
X136952380Y-104642857D01*
X137000000Y-104738095D01*
X137047619Y-104785714D01*
X137142857Y-104833333D01*
X137285714Y-104833333D01*
X137380952Y-104785714D01*
X137428571Y-104738095D01*
X137476190Y-104642857D01*
X137476190Y-104261904D01*
X136952380Y-105166666D02*
X136952380Y-105833333D01*
X137952380Y-105404761D01*
X173761904Y-85452380D02*
X173761904Y-86261904D01*
X173714285Y-86357142D01*
X173666666Y-86404761D01*
X173571428Y-86452380D01*
X173380952Y-86452380D01*
X173285714Y-86404761D01*
X173238095Y-86357142D01*
X173190476Y-86261904D01*
X173190476Y-85452380D01*
X172761904Y-85547619D02*
X172714285Y-85500000D01*
X172619047Y-85452380D01*
X172380952Y-85452380D01*
X172285714Y-85500000D01*
X172238095Y-85547619D01*
X172190476Y-85642857D01*
X172190476Y-85738095D01*
X172238095Y-85880952D01*
X172809523Y-86452380D01*
X172190476Y-86452380D01*
X159857142Y-64833333D02*
X159904761Y-64785714D01*
X159952380Y-64642857D01*
X159952380Y-64547619D01*
X159904761Y-64404761D01*
X159809523Y-64309523D01*
X159714285Y-64261904D01*
X159523809Y-64214285D01*
X159380952Y-64214285D01*
X159190476Y-64261904D01*
X159095238Y-64309523D01*
X159000000Y-64404761D01*
X158952380Y-64547619D01*
X158952380Y-64642857D01*
X159000000Y-64785714D01*
X159047619Y-64833333D01*
X159380952Y-65404761D02*
X159333333Y-65309523D01*
X159285714Y-65261904D01*
X159190476Y-65214285D01*
X159142857Y-65214285D01*
X159047619Y-65261904D01*
X159000000Y-65309523D01*
X158952380Y-65404761D01*
X158952380Y-65595238D01*
X159000000Y-65690476D01*
X159047619Y-65738095D01*
X159142857Y-65785714D01*
X159190476Y-65785714D01*
X159285714Y-65738095D01*
X159333333Y-65690476D01*
X159380952Y-65595238D01*
X159380952Y-65404761D01*
X159428571Y-65309523D01*
X159476190Y-65261904D01*
X159571428Y-65214285D01*
X159761904Y-65214285D01*
X159857142Y-65261904D01*
X159904761Y-65309523D01*
X159952380Y-65404761D01*
X159952380Y-65595238D01*
X159904761Y-65690476D01*
X159857142Y-65738095D01*
X159761904Y-65785714D01*
X159571428Y-65785714D01*
X159476190Y-65738095D01*
X159428571Y-65690476D01*
X159380952Y-65595238D01*
X168892857Y-96037142D02*
X168940476Y-96084761D01*
X169083333Y-96132380D01*
X169178571Y-96132380D01*
X169321428Y-96084761D01*
X169416666Y-95989523D01*
X169464285Y-95894285D01*
X169511904Y-95703809D01*
X169511904Y-95560952D01*
X169464285Y-95370476D01*
X169416666Y-95275238D01*
X169321428Y-95180000D01*
X169178571Y-95132380D01*
X169083333Y-95132380D01*
X168940476Y-95180000D01*
X168892857Y-95227619D01*
X167940476Y-96132380D02*
X168511904Y-96132380D01*
X168226190Y-96132380D02*
X168226190Y-95132380D01*
X168321428Y-95275238D01*
X168416666Y-95370476D01*
X168511904Y-95418095D01*
X167321428Y-95132380D02*
X167226190Y-95132380D01*
X167130952Y-95180000D01*
X167083333Y-95227619D01*
X167035714Y-95322857D01*
X166988095Y-95513333D01*
X166988095Y-95751428D01*
X167035714Y-95941904D01*
X167083333Y-96037142D01*
X167130952Y-96084761D01*
X167226190Y-96132380D01*
X167321428Y-96132380D01*
X167416666Y-96084761D01*
X167464285Y-96037142D01*
X167511904Y-95941904D01*
X167559523Y-95751428D01*
X167559523Y-95513333D01*
X167511904Y-95322857D01*
X167464285Y-95227619D01*
X167416666Y-95180000D01*
X167321428Y-95132380D01*
X170857142Y-75733333D02*
X170904761Y-75685714D01*
X170952380Y-75542857D01*
X170952380Y-75447619D01*
X170904761Y-75304761D01*
X170809523Y-75209523D01*
X170714285Y-75161904D01*
X170523809Y-75114285D01*
X170380952Y-75114285D01*
X170190476Y-75161904D01*
X170095238Y-75209523D01*
X170000000Y-75304761D01*
X169952380Y-75447619D01*
X169952380Y-75542857D01*
X170000000Y-75685714D01*
X170047619Y-75733333D01*
X169952380Y-76638095D02*
X169952380Y-76161904D01*
X170428571Y-76114285D01*
X170380952Y-76161904D01*
X170333333Y-76257142D01*
X170333333Y-76495238D01*
X170380952Y-76590476D01*
X170428571Y-76638095D01*
X170523809Y-76685714D01*
X170761904Y-76685714D01*
X170857142Y-76638095D01*
X170904761Y-76590476D01*
X170952380Y-76495238D01*
X170952380Y-76257142D01*
X170904761Y-76161904D01*
X170857142Y-76114285D01*
X163857142Y-64833333D02*
X163904761Y-64785714D01*
X163952380Y-64642857D01*
X163952380Y-64547619D01*
X163904761Y-64404761D01*
X163809523Y-64309523D01*
X163714285Y-64261904D01*
X163523809Y-64214285D01*
X163380952Y-64214285D01*
X163190476Y-64261904D01*
X163095238Y-64309523D01*
X163000000Y-64404761D01*
X162952380Y-64547619D01*
X162952380Y-64642857D01*
X163000000Y-64785714D01*
X163047619Y-64833333D01*
X163285714Y-65690476D02*
X163952380Y-65690476D01*
X162904761Y-65452380D02*
X163619047Y-65214285D01*
X163619047Y-65833333D01*
X168142857Y-92452380D02*
X168476190Y-91976190D01*
X168714285Y-92452380D02*
X168714285Y-91452380D01*
X168333333Y-91452380D01*
X168238095Y-91500000D01*
X168190476Y-91547619D01*
X168142857Y-91642857D01*
X168142857Y-91785714D01*
X168190476Y-91880952D01*
X168238095Y-91928571D01*
X168333333Y-91976190D01*
X168714285Y-91976190D01*
X167190476Y-92452380D02*
X167761904Y-92452380D01*
X167476190Y-92452380D02*
X167476190Y-91452380D01*
X167571428Y-91595238D01*
X167666666Y-91690476D01*
X167761904Y-91738095D01*
X166571428Y-91452380D02*
X166476190Y-91452380D01*
X166380952Y-91500000D01*
X166333333Y-91547619D01*
X166285714Y-91642857D01*
X166238095Y-91833333D01*
X166238095Y-92071428D01*
X166285714Y-92261904D01*
X166333333Y-92357142D01*
X166380952Y-92404761D01*
X166476190Y-92452380D01*
X166571428Y-92452380D01*
X166666666Y-92404761D01*
X166714285Y-92357142D01*
X166761904Y-92261904D01*
X166809523Y-92071428D01*
X166809523Y-91833333D01*
X166761904Y-91642857D01*
X166714285Y-91547619D01*
X166666666Y-91500000D01*
X166571428Y-91452380D01*
X176892857Y-106132380D02*
X177226190Y-105656190D01*
X177464285Y-106132380D02*
X177464285Y-105132380D01*
X177083333Y-105132380D01*
X176988095Y-105180000D01*
X176940476Y-105227619D01*
X176892857Y-105322857D01*
X176892857Y-105465714D01*
X176940476Y-105560952D01*
X176988095Y-105608571D01*
X177083333Y-105656190D01*
X177464285Y-105656190D01*
X175940476Y-106132380D02*
X176511904Y-106132380D01*
X176226190Y-106132380D02*
X176226190Y-105132380D01*
X176321428Y-105275238D01*
X176416666Y-105370476D01*
X176511904Y-105418095D01*
X175083333Y-105132380D02*
X175273809Y-105132380D01*
X175369047Y-105180000D01*
X175416666Y-105227619D01*
X175511904Y-105370476D01*
X175559523Y-105560952D01*
X175559523Y-105941904D01*
X175511904Y-106037142D01*
X175464285Y-106084761D01*
X175369047Y-106132380D01*
X175178571Y-106132380D01*
X175083333Y-106084761D01*
X175035714Y-106037142D01*
X174988095Y-105941904D01*
X174988095Y-105703809D01*
X175035714Y-105608571D01*
X175083333Y-105560952D01*
X175178571Y-105513333D01*
X175369047Y-105513333D01*
X175464285Y-105560952D01*
X175511904Y-105608571D01*
X175559523Y-105703809D01*
X177392857Y-86357142D02*
X177440476Y-86404761D01*
X177583333Y-86452380D01*
X177678571Y-86452380D01*
X177821428Y-86404761D01*
X177916666Y-86309523D01*
X177964285Y-86214285D01*
X178011904Y-86023809D01*
X178011904Y-85880952D01*
X177964285Y-85690476D01*
X177916666Y-85595238D01*
X177821428Y-85500000D01*
X177678571Y-85452380D01*
X177583333Y-85452380D01*
X177440476Y-85500000D01*
X177392857Y-85547619D01*
X176440476Y-86452380D02*
X177011904Y-86452380D01*
X176726190Y-86452380D02*
X176726190Y-85452380D01*
X176821428Y-85595238D01*
X176916666Y-85690476D01*
X177011904Y-85738095D01*
X176059523Y-85547619D02*
X176011904Y-85500000D01*
X175916666Y-85452380D01*
X175678571Y-85452380D01*
X175583333Y-85500000D01*
X175535714Y-85547619D01*
X175488095Y-85642857D01*
X175488095Y-85738095D01*
X175535714Y-85880952D01*
X176107142Y-86452380D01*
X175488095Y-86452380D01*
X178892857Y-89952380D02*
X179226190Y-89476190D01*
X179464285Y-89952380D02*
X179464285Y-88952380D01*
X179083333Y-88952380D01*
X178988095Y-89000000D01*
X178940476Y-89047619D01*
X178892857Y-89142857D01*
X178892857Y-89285714D01*
X178940476Y-89380952D01*
X178988095Y-89428571D01*
X179083333Y-89476190D01*
X179464285Y-89476190D01*
X178511904Y-89047619D02*
X178464285Y-89000000D01*
X178369047Y-88952380D01*
X178130952Y-88952380D01*
X178035714Y-89000000D01*
X177988095Y-89047619D01*
X177940476Y-89142857D01*
X177940476Y-89238095D01*
X177988095Y-89380952D01*
X178559523Y-89952380D01*
X177940476Y-89952380D01*
X177321428Y-88952380D02*
X177226190Y-88952380D01*
X177130952Y-89000000D01*
X177083333Y-89047619D01*
X177035714Y-89142857D01*
X176988095Y-89333333D01*
X176988095Y-89571428D01*
X177035714Y-89761904D01*
X177083333Y-89857142D01*
X177130952Y-89904761D01*
X177226190Y-89952380D01*
X177321428Y-89952380D01*
X177416666Y-89904761D01*
X177464285Y-89857142D01*
X177511904Y-89761904D01*
X177559523Y-89571428D01*
X177559523Y-89333333D01*
X177511904Y-89142857D01*
X177464285Y-89047619D01*
X177416666Y-89000000D01*
X177321428Y-88952380D01*
X178892857Y-91702380D02*
X179226190Y-91226190D01*
X179464285Y-91702380D02*
X179464285Y-90702380D01*
X179083333Y-90702380D01*
X178988095Y-90750000D01*
X178940476Y-90797619D01*
X178892857Y-90892857D01*
X178892857Y-91035714D01*
X178940476Y-91130952D01*
X178988095Y-91178571D01*
X179083333Y-91226190D01*
X179464285Y-91226190D01*
X177940476Y-91702380D02*
X178511904Y-91702380D01*
X178226190Y-91702380D02*
X178226190Y-90702380D01*
X178321428Y-90845238D01*
X178416666Y-90940476D01*
X178511904Y-90988095D01*
X177035714Y-90702380D02*
X177511904Y-90702380D01*
X177559523Y-91178571D01*
X177511904Y-91130952D01*
X177416666Y-91083333D01*
X177178571Y-91083333D01*
X177083333Y-91130952D01*
X177035714Y-91178571D01*
X176988095Y-91273809D01*
X176988095Y-91511904D01*
X177035714Y-91607142D01*
X177083333Y-91654761D01*
X177178571Y-91702380D01*
X177416666Y-91702380D01*
X177511904Y-91654761D01*
X177559523Y-91607142D01*
X159952380Y-85583333D02*
X159952380Y-85107142D01*
X158952380Y-85107142D01*
X159952380Y-86440476D02*
X159952380Y-85869047D01*
X159952380Y-86154761D02*
X158952380Y-86154761D01*
X159095238Y-86059523D01*
X159190476Y-85964285D01*
X159238095Y-85869047D01*
X177392857Y-84607142D02*
X177440476Y-84654761D01*
X177583333Y-84702380D01*
X177678571Y-84702380D01*
X177821428Y-84654761D01*
X177916666Y-84559523D01*
X177964285Y-84464285D01*
X178011904Y-84273809D01*
X178011904Y-84130952D01*
X177964285Y-83940476D01*
X177916666Y-83845238D01*
X177821428Y-83750000D01*
X177678571Y-83702380D01*
X177583333Y-83702380D01*
X177440476Y-83750000D01*
X177392857Y-83797619D01*
X176440476Y-84702380D02*
X177011904Y-84702380D01*
X176726190Y-84702380D02*
X176726190Y-83702380D01*
X176821428Y-83845238D01*
X176916666Y-83940476D01*
X177011904Y-83988095D01*
X175488095Y-84702380D02*
X176059523Y-84702380D01*
X175773809Y-84702380D02*
X175773809Y-83702380D01*
X175869047Y-83845238D01*
X175964285Y-83940476D01*
X176059523Y-83988095D01*
X168142857Y-88952380D02*
X168476190Y-88476190D01*
X168714285Y-88952380D02*
X168714285Y-87952380D01*
X168333333Y-87952380D01*
X168238095Y-88000000D01*
X168190476Y-88047619D01*
X168142857Y-88142857D01*
X168142857Y-88285714D01*
X168190476Y-88380952D01*
X168238095Y-88428571D01*
X168333333Y-88476190D01*
X168714285Y-88476190D01*
X167190476Y-88952380D02*
X167761904Y-88952380D01*
X167476190Y-88952380D02*
X167476190Y-87952380D01*
X167571428Y-88095238D01*
X167666666Y-88190476D01*
X167761904Y-88238095D01*
X166857142Y-87952380D02*
X166238095Y-87952380D01*
X166571428Y-88333333D01*
X166428571Y-88333333D01*
X166333333Y-88380952D01*
X166285714Y-88428571D01*
X166238095Y-88523809D01*
X166238095Y-88761904D01*
X166285714Y-88857142D01*
X166333333Y-88904761D01*
X166428571Y-88952380D01*
X166714285Y-88952380D01*
X166809523Y-88904761D01*
X166857142Y-88857142D01*
X161522380Y-80333333D02*
X161046190Y-80000000D01*
X161522380Y-79761904D02*
X160522380Y-79761904D01*
X160522380Y-80142857D01*
X160570000Y-80238095D01*
X160617619Y-80285714D01*
X160712857Y-80333333D01*
X160855714Y-80333333D01*
X160950952Y-80285714D01*
X160998571Y-80238095D01*
X161046190Y-80142857D01*
X161046190Y-79761904D01*
X160617619Y-80714285D02*
X160570000Y-80761904D01*
X160522380Y-80857142D01*
X160522380Y-81095238D01*
X160570000Y-81190476D01*
X160617619Y-81238095D01*
X160712857Y-81285714D01*
X160808095Y-81285714D01*
X160950952Y-81238095D01*
X161522380Y-80666666D01*
X161522380Y-81285714D01*
X150728004Y-121250980D02*
X150728004Y-122060504D01*
X150680385Y-122155742D01*
X150632766Y-122203361D01*
X150537528Y-122250980D01*
X150347052Y-122250980D01*
X150251814Y-122203361D01*
X150204195Y-122155742D01*
X150156576Y-122060504D01*
X150156576Y-121250980D01*
X149775623Y-121250980D02*
X149108957Y-121250980D01*
X149537528Y-122250980D01*
X132261904Y-99202380D02*
X132261904Y-100011904D01*
X132214285Y-100107142D01*
X132166666Y-100154761D01*
X132071428Y-100202380D01*
X131880952Y-100202380D01*
X131785714Y-100154761D01*
X131738095Y-100107142D01*
X131690476Y-100011904D01*
X131690476Y-99202380D01*
X131309523Y-99202380D02*
X130690476Y-99202380D01*
X131023809Y-99583333D01*
X130880952Y-99583333D01*
X130785714Y-99630952D01*
X130738095Y-99678571D01*
X130690476Y-99773809D01*
X130690476Y-100011904D01*
X130738095Y-100107142D01*
X130785714Y-100154761D01*
X130880952Y-100202380D01*
X131166666Y-100202380D01*
X131261904Y-100154761D01*
X131309523Y-100107142D01*
X167166666Y-83857142D02*
X167214285Y-83904761D01*
X167357142Y-83952380D01*
X167452380Y-83952380D01*
X167595238Y-83904761D01*
X167690476Y-83809523D01*
X167738095Y-83714285D01*
X167785714Y-83523809D01*
X167785714Y-83380952D01*
X167738095Y-83190476D01*
X167690476Y-83095238D01*
X167595238Y-83000000D01*
X167452380Y-82952380D01*
X167357142Y-82952380D01*
X167214285Y-83000000D01*
X167166666Y-83047619D01*
X166690476Y-83952380D02*
X166500000Y-83952380D01*
X166404761Y-83904761D01*
X166357142Y-83857142D01*
X166261904Y-83714285D01*
X166214285Y-83523809D01*
X166214285Y-83142857D01*
X166261904Y-83047619D01*
X166309523Y-83000000D01*
X166404761Y-82952380D01*
X166595238Y-82952380D01*
X166690476Y-83000000D01*
X166738095Y-83047619D01*
X166785714Y-83142857D01*
X166785714Y-83380952D01*
X166738095Y-83476190D01*
X166690476Y-83523809D01*
X166595238Y-83571428D01*
X166404761Y-83571428D01*
X166309523Y-83523809D01*
X166261904Y-83476190D01*
X166214285Y-83380952D01*
X170607142Y-80607142D02*
X170654761Y-80559523D01*
X170702380Y-80416666D01*
X170702380Y-80321428D01*
X170654761Y-80178571D01*
X170559523Y-80083333D01*
X170464285Y-80035714D01*
X170273809Y-79988095D01*
X170130952Y-79988095D01*
X169940476Y-80035714D01*
X169845238Y-80083333D01*
X169750000Y-80178571D01*
X169702380Y-80321428D01*
X169702380Y-80416666D01*
X169750000Y-80559523D01*
X169797619Y-80607142D01*
X170702380Y-81559523D02*
X170702380Y-80988095D01*
X170702380Y-81273809D02*
X169702380Y-81273809D01*
X169845238Y-81178571D01*
X169940476Y-81083333D01*
X169988095Y-80988095D01*
X170035714Y-82416666D02*
X170702380Y-82416666D01*
X169654761Y-82178571D02*
X170369047Y-81940476D01*
X170369047Y-82559523D01*
X156857142Y-84857142D02*
X156904761Y-84809523D01*
X156952380Y-84666666D01*
X156952380Y-84571428D01*
X156904761Y-84428571D01*
X156809523Y-84333333D01*
X156714285Y-84285714D01*
X156523809Y-84238095D01*
X156380952Y-84238095D01*
X156190476Y-84285714D01*
X156095238Y-84333333D01*
X156000000Y-84428571D01*
X155952380Y-84571428D01*
X155952380Y-84666666D01*
X156000000Y-84809523D01*
X156047619Y-84857142D01*
X156952380Y-85809523D02*
X156952380Y-85238095D01*
X156952380Y-85523809D02*
X155952380Y-85523809D01*
X156095238Y-85428571D01*
X156190476Y-85333333D01*
X156238095Y-85238095D01*
X155952380Y-86142857D02*
X155952380Y-86761904D01*
X156333333Y-86428571D01*
X156333333Y-86571428D01*
X156380952Y-86666666D01*
X156428571Y-86714285D01*
X156523809Y-86761904D01*
X156761904Y-86761904D01*
X156857142Y-86714285D01*
X156904761Y-86666666D01*
X156952380Y-86571428D01*
X156952380Y-86285714D01*
X156904761Y-86190476D01*
X156857142Y-86142857D01*
X159452380Y-61357142D02*
X158976190Y-61023809D01*
X159452380Y-60785714D02*
X158452380Y-60785714D01*
X158452380Y-61166666D01*
X158500000Y-61261904D01*
X158547619Y-61309523D01*
X158642857Y-61357142D01*
X158785714Y-61357142D01*
X158880952Y-61309523D01*
X158928571Y-61261904D01*
X158976190Y-61166666D01*
X158976190Y-60785714D01*
X159452380Y-62309523D02*
X159452380Y-61738095D01*
X159452380Y-62023809D02*
X158452380Y-62023809D01*
X158595238Y-61928571D01*
X158690476Y-61833333D01*
X158738095Y-61738095D01*
X158547619Y-62690476D02*
X158500000Y-62738095D01*
X158452380Y-62833333D01*
X158452380Y-63071428D01*
X158500000Y-63166666D01*
X158547619Y-63214285D01*
X158642857Y-63261904D01*
X158738095Y-63261904D01*
X158880952Y-63214285D01*
X159452380Y-62642857D01*
X159452380Y-63261904D01*
X153607142Y-84083333D02*
X153654761Y-84035714D01*
X153702380Y-83892857D01*
X153702380Y-83797619D01*
X153654761Y-83654761D01*
X153559523Y-83559523D01*
X153464285Y-83511904D01*
X153273809Y-83464285D01*
X153130952Y-83464285D01*
X152940476Y-83511904D01*
X152845238Y-83559523D01*
X152750000Y-83654761D01*
X152702380Y-83797619D01*
X152702380Y-83892857D01*
X152750000Y-84035714D01*
X152797619Y-84083333D01*
X152702380Y-84416666D02*
X152702380Y-85035714D01*
X153083333Y-84702380D01*
X153083333Y-84845238D01*
X153130952Y-84940476D01*
X153178571Y-84988095D01*
X153273809Y-85035714D01*
X153511904Y-85035714D01*
X153607142Y-84988095D01*
X153654761Y-84940476D01*
X153702380Y-84845238D01*
X153702380Y-84559523D01*
X153654761Y-84464285D01*
X153607142Y-84416666D01*
X179607142Y-80607142D02*
X179654761Y-80559523D01*
X179702380Y-80416666D01*
X179702380Y-80321428D01*
X179654761Y-80178571D01*
X179559523Y-80083333D01*
X179464285Y-80035714D01*
X179273809Y-79988095D01*
X179130952Y-79988095D01*
X178940476Y-80035714D01*
X178845238Y-80083333D01*
X178750000Y-80178571D01*
X178702380Y-80321428D01*
X178702380Y-80416666D01*
X178750000Y-80559523D01*
X178797619Y-80607142D01*
X179702380Y-81559523D02*
X179702380Y-80988095D01*
X179702380Y-81273809D02*
X178702380Y-81273809D01*
X178845238Y-81178571D01*
X178940476Y-81083333D01*
X178988095Y-80988095D01*
X178702380Y-82464285D02*
X178702380Y-81988095D01*
X179178571Y-81940476D01*
X179130952Y-81988095D01*
X179083333Y-82083333D01*
X179083333Y-82321428D01*
X179130952Y-82416666D01*
X179178571Y-82464285D01*
X179273809Y-82511904D01*
X179511904Y-82511904D01*
X179607142Y-82464285D01*
X179654761Y-82416666D01*
X179702380Y-82321428D01*
X179702380Y-82083333D01*
X179654761Y-81988095D01*
X179607142Y-81940476D01*
X175226190Y-78226190D02*
X175226190Y-78702380D01*
X175559523Y-77702380D02*
X175226190Y-78226190D01*
X174892857Y-77702380D01*
X174035714Y-78702380D02*
X174607142Y-78702380D01*
X174321428Y-78702380D02*
X174321428Y-77702380D01*
X174416666Y-77845238D01*
X174511904Y-77940476D01*
X174607142Y-77988095D01*
X178892857Y-95202380D02*
X179226190Y-94726190D01*
X179464285Y-95202380D02*
X179464285Y-94202380D01*
X179083333Y-94202380D01*
X178988095Y-94250000D01*
X178940476Y-94297619D01*
X178892857Y-94392857D01*
X178892857Y-94535714D01*
X178940476Y-94630952D01*
X178988095Y-94678571D01*
X179083333Y-94726190D01*
X179464285Y-94726190D01*
X177940476Y-95202380D02*
X178511904Y-95202380D01*
X178226190Y-95202380D02*
X178226190Y-94202380D01*
X178321428Y-94345238D01*
X178416666Y-94440476D01*
X178511904Y-94488095D01*
X177607142Y-94202380D02*
X176940476Y-94202380D01*
X177369047Y-95202380D01*
X178892857Y-93452380D02*
X179226190Y-92976190D01*
X179464285Y-93452380D02*
X179464285Y-92452380D01*
X179083333Y-92452380D01*
X178988095Y-92500000D01*
X178940476Y-92547619D01*
X178892857Y-92642857D01*
X178892857Y-92785714D01*
X178940476Y-92880952D01*
X178988095Y-92928571D01*
X179083333Y-92976190D01*
X179464285Y-92976190D01*
X177940476Y-93452380D02*
X178511904Y-93452380D01*
X178226190Y-93452380D02*
X178226190Y-92452380D01*
X178321428Y-92595238D01*
X178416666Y-92690476D01*
X178511904Y-92738095D01*
X177369047Y-92880952D02*
X177464285Y-92833333D01*
X177511904Y-92785714D01*
X177559523Y-92690476D01*
X177559523Y-92642857D01*
X177511904Y-92547619D01*
X177464285Y-92500000D01*
X177369047Y-92452380D01*
X177178571Y-92452380D01*
X177083333Y-92500000D01*
X177035714Y-92547619D01*
X176988095Y-92642857D01*
X176988095Y-92690476D01*
X177035714Y-92785714D01*
X177083333Y-92833333D01*
X177178571Y-92880952D01*
X177369047Y-92880952D01*
X177464285Y-92928571D01*
X177511904Y-92976190D01*
X177559523Y-93071428D01*
X177559523Y-93261904D01*
X177511904Y-93357142D01*
X177464285Y-93404761D01*
X177369047Y-93452380D01*
X177178571Y-93452380D01*
X177083333Y-93404761D01*
X177035714Y-93357142D01*
X176988095Y-93261904D01*
X176988095Y-93071428D01*
X177035714Y-92976190D01*
X177083333Y-92928571D01*
X177178571Y-92880952D01*
X165107142Y-75592753D02*
X165154761Y-75545134D01*
X165202380Y-75402277D01*
X165202380Y-75307039D01*
X165154761Y-75164181D01*
X165059523Y-75068943D01*
X164964285Y-75021324D01*
X164773809Y-74973705D01*
X164630952Y-74973705D01*
X164440476Y-75021324D01*
X164345238Y-75068943D01*
X164250000Y-75164181D01*
X164202380Y-75307039D01*
X164202380Y-75402277D01*
X164250000Y-75545134D01*
X164297619Y-75592753D01*
X164202380Y-76449896D02*
X164202380Y-76259420D01*
X164250000Y-76164181D01*
X164297619Y-76116562D01*
X164440476Y-76021324D01*
X164630952Y-75973705D01*
X165011904Y-75973705D01*
X165107142Y-76021324D01*
X165154761Y-76068943D01*
X165202380Y-76164181D01*
X165202380Y-76354658D01*
X165154761Y-76449896D01*
X165107142Y-76497515D01*
X165011904Y-76545134D01*
X164773809Y-76545134D01*
X164678571Y-76497515D01*
X164630952Y-76449896D01*
X164583333Y-76354658D01*
X164583333Y-76164181D01*
X164630952Y-76068943D01*
X164678571Y-76021324D01*
X164773809Y-75973705D01*
X164452380Y-61333333D02*
X163976190Y-61000000D01*
X164452380Y-60761904D02*
X163452380Y-60761904D01*
X163452380Y-61142857D01*
X163500000Y-61238095D01*
X163547619Y-61285714D01*
X163642857Y-61333333D01*
X163785714Y-61333333D01*
X163880952Y-61285714D01*
X163928571Y-61238095D01*
X163976190Y-61142857D01*
X163976190Y-60761904D01*
X163880952Y-61904761D02*
X163833333Y-61809523D01*
X163785714Y-61761904D01*
X163690476Y-61714285D01*
X163642857Y-61714285D01*
X163547619Y-61761904D01*
X163500000Y-61809523D01*
X163452380Y-61904761D01*
X163452380Y-62095238D01*
X163500000Y-62190476D01*
X163547619Y-62238095D01*
X163642857Y-62285714D01*
X163690476Y-62285714D01*
X163785714Y-62238095D01*
X163833333Y-62190476D01*
X163880952Y-62095238D01*
X163880952Y-61904761D01*
X163928571Y-61809523D01*
X163976190Y-61761904D01*
X164071428Y-61714285D01*
X164261904Y-61714285D01*
X164357142Y-61761904D01*
X164404761Y-61809523D01*
X164452380Y-61904761D01*
X164452380Y-62095238D01*
X164404761Y-62190476D01*
X164357142Y-62238095D01*
X164261904Y-62285714D01*
X164071428Y-62285714D01*
X163976190Y-62238095D01*
X163928571Y-62190476D01*
X163880952Y-62095238D01*
X161857142Y-64833333D02*
X161904761Y-64785714D01*
X161952380Y-64642857D01*
X161952380Y-64547619D01*
X161904761Y-64404761D01*
X161809523Y-64309523D01*
X161714285Y-64261904D01*
X161523809Y-64214285D01*
X161380952Y-64214285D01*
X161190476Y-64261904D01*
X161095238Y-64309523D01*
X161000000Y-64404761D01*
X160952380Y-64547619D01*
X160952380Y-64642857D01*
X161000000Y-64785714D01*
X161047619Y-64833333D01*
X160952380Y-65166666D02*
X160952380Y-65833333D01*
X161952380Y-65404761D01*
X168142857Y-85452380D02*
X168476190Y-84976190D01*
X168714285Y-85452380D02*
X168714285Y-84452380D01*
X168333333Y-84452380D01*
X168238095Y-84500000D01*
X168190476Y-84547619D01*
X168142857Y-84642857D01*
X168142857Y-84785714D01*
X168190476Y-84880952D01*
X168238095Y-84928571D01*
X168333333Y-84976190D01*
X168714285Y-84976190D01*
X167190476Y-85452380D02*
X167761904Y-85452380D01*
X167476190Y-85452380D02*
X167476190Y-84452380D01*
X167571428Y-84595238D01*
X167666666Y-84690476D01*
X167761904Y-84738095D01*
X166333333Y-84785714D02*
X166333333Y-85452380D01*
X166571428Y-84404761D02*
X166809523Y-85119047D01*
X166190476Y-85119047D01*
X178892857Y-88202380D02*
X179226190Y-87726190D01*
X179464285Y-88202380D02*
X179464285Y-87202380D01*
X179083333Y-87202380D01*
X178988095Y-87250000D01*
X178940476Y-87297619D01*
X178892857Y-87392857D01*
X178892857Y-87535714D01*
X178940476Y-87630952D01*
X178988095Y-87678571D01*
X179083333Y-87726190D01*
X179464285Y-87726190D01*
X177940476Y-88202380D02*
X178511904Y-88202380D01*
X178226190Y-88202380D02*
X178226190Y-87202380D01*
X178321428Y-87345238D01*
X178416666Y-87440476D01*
X178511904Y-87488095D01*
X177464285Y-88202380D02*
X177273809Y-88202380D01*
X177178571Y-88154761D01*
X177130952Y-88107142D01*
X177035714Y-87964285D01*
X176988095Y-87773809D01*
X176988095Y-87392857D01*
X177035714Y-87297619D01*
X177083333Y-87250000D01*
X177178571Y-87202380D01*
X177369047Y-87202380D01*
X177464285Y-87250000D01*
X177511904Y-87297619D01*
X177559523Y-87392857D01*
X177559523Y-87630952D01*
X177511904Y-87726190D01*
X177464285Y-87773809D01*
X177369047Y-87821428D01*
X177178571Y-87821428D01*
X177083333Y-87773809D01*
X177035714Y-87726190D01*
X176988095Y-87630952D01*
X168142857Y-87202380D02*
X168476190Y-86726190D01*
X168714285Y-87202380D02*
X168714285Y-86202380D01*
X168333333Y-86202380D01*
X168238095Y-86250000D01*
X168190476Y-86297619D01*
X168142857Y-86392857D01*
X168142857Y-86535714D01*
X168190476Y-86630952D01*
X168238095Y-86678571D01*
X168333333Y-86726190D01*
X168714285Y-86726190D01*
X167190476Y-87202380D02*
X167761904Y-87202380D01*
X167476190Y-87202380D02*
X167476190Y-86202380D01*
X167571428Y-86345238D01*
X167666666Y-86440476D01*
X167761904Y-86488095D01*
X166238095Y-87202380D02*
X166809523Y-87202380D01*
X166523809Y-87202380D02*
X166523809Y-86202380D01*
X166619047Y-86345238D01*
X166714285Y-86440476D01*
X166809523Y-86488095D01*
X170991666Y-130882380D02*
X171325000Y-130406190D01*
X171563095Y-130882380D02*
X171563095Y-129882380D01*
X171182142Y-129882380D01*
X171086904Y-129930000D01*
X171039285Y-129977619D01*
X170991666Y-130072857D01*
X170991666Y-130215714D01*
X171039285Y-130310952D01*
X171086904Y-130358571D01*
X171182142Y-130406190D01*
X171563095Y-130406190D01*
X170134523Y-130215714D02*
X170134523Y-130882380D01*
X170372619Y-129834761D02*
X170610714Y-130549047D01*
X169991666Y-130549047D01*
X137952380Y-108333333D02*
X137476190Y-108000000D01*
X137952380Y-107761904D02*
X136952380Y-107761904D01*
X136952380Y-108142857D01*
X137000000Y-108238095D01*
X137047619Y-108285714D01*
X137142857Y-108333333D01*
X137285714Y-108333333D01*
X137380952Y-108285714D01*
X137428571Y-108238095D01*
X137476190Y-108142857D01*
X137476190Y-107761904D01*
X136952380Y-109190476D02*
X136952380Y-109000000D01*
X137000000Y-108904761D01*
X137047619Y-108857142D01*
X137190476Y-108761904D01*
X137380952Y-108714285D01*
X137761904Y-108714285D01*
X137857142Y-108761904D01*
X137904761Y-108809523D01*
X137952380Y-108904761D01*
X137952380Y-109095238D01*
X137904761Y-109190476D01*
X137857142Y-109238095D01*
X137761904Y-109285714D01*
X137523809Y-109285714D01*
X137428571Y-109238095D01*
X137380952Y-109190476D01*
X137333333Y-109095238D01*
X137333333Y-108904761D01*
X137380952Y-108809523D01*
X137428571Y-108761904D01*
X137523809Y-108714285D01*
D12*
X164262742Y-89727500D02*
X164737258Y-89727500D01*
X164262742Y-90772500D02*
X164737258Y-90772500D01*
X175312258Y-129522500D02*
X174837742Y-129522500D01*
X175312258Y-128477500D02*
X174837742Y-128477500D01*
X139522500Y-105237258D02*
X139522500Y-104762742D01*
X138477500Y-105237258D02*
X138477500Y-104762742D01*
X175110000Y-87715000D02*
X175110000Y-87240000D01*
X175110000Y-90985000D02*
X175110000Y-91460000D01*
X170890000Y-91460000D02*
X171365000Y-91460000D01*
X170890000Y-87715000D02*
X170890000Y-87240000D01*
X175110000Y-91460000D02*
X174635000Y-91460000D01*
X175110000Y-87240000D02*
X174635000Y-87240000D01*
X170890000Y-90985000D02*
X170890000Y-91460000D01*
X158990000Y-67640580D02*
X158990000Y-67359420D01*
X160010000Y-67640580D02*
X160010000Y-67359420D01*
X168109420Y-94760000D02*
X168390580Y-94760000D01*
X168109420Y-93740000D02*
X168390580Y-93740000D01*
X168490000Y-75759420D02*
X168490000Y-76040580D01*
X169510000Y-75759420D02*
X169510000Y-76040580D01*
X164010000Y-67359420D02*
X164010000Y-67640580D01*
X162990000Y-67359420D02*
X162990000Y-67640580D01*
X164262742Y-91477500D02*
X164737258Y-91477500D01*
X164262742Y-92522500D02*
X164737258Y-92522500D01*
X176012742Y-103727500D02*
X176487258Y-103727500D01*
X176012742Y-104772500D02*
X176487258Y-104772500D01*
X179609420Y-86510000D02*
X179890580Y-86510000D01*
X179609420Y-85490000D02*
X179890580Y-85490000D01*
X181012742Y-90022500D02*
X181487258Y-90022500D01*
X181012742Y-88977500D02*
X181487258Y-88977500D01*
X181487258Y-91772500D02*
X181012742Y-91772500D01*
X181487258Y-90727500D02*
X181012742Y-90727500D01*
X158940000Y-88962122D02*
X158940000Y-88162878D01*
X160060000Y-88962122D02*
X160060000Y-88162878D01*
X179609420Y-83740000D02*
X179890580Y-83740000D01*
X179609420Y-84760000D02*
X179890580Y-84760000D01*
X164262742Y-87977500D02*
X164737258Y-87977500D01*
X164262742Y-89022500D02*
X164737258Y-89022500D01*
X161977500Y-80262742D02*
X161977500Y-80737258D01*
X163022500Y-80262742D02*
X163022500Y-80737258D01*
X152726100Y-122913600D02*
X154416100Y-122913600D01*
X147206100Y-122638600D02*
X147206100Y-122913600D01*
X152726100Y-122638600D02*
X152726100Y-122913600D01*
X147206100Y-130058600D02*
X147206100Y-129783600D01*
X149966100Y-122638600D02*
X152726100Y-122638600D01*
X149966100Y-122638600D02*
X147206100Y-122638600D01*
X152726100Y-130058600D02*
X152726100Y-129783600D01*
X149966100Y-130058600D02*
X152726100Y-130058600D01*
X149966100Y-130058600D02*
X147206100Y-130058600D01*
X128590000Y-103090000D02*
X129850000Y-103090000D01*
X128590000Y-106850000D02*
X128590000Y-103090000D01*
X135410000Y-103090000D02*
X134150000Y-103090000D01*
X135410000Y-109100000D02*
X135410000Y-103090000D01*
X164640580Y-83760000D02*
X164359420Y-83760000D01*
X164640580Y-82740000D02*
X164359420Y-82740000D01*
X172260000Y-81390580D02*
X172260000Y-81109420D01*
X171240000Y-81390580D02*
X171240000Y-81109420D01*
X157010000Y-88640580D02*
X157010000Y-88359420D01*
X155990000Y-88640580D02*
X155990000Y-88359420D01*
X161022500Y-61762742D02*
X161022500Y-62237258D01*
X159977500Y-61762742D02*
X159977500Y-62237258D01*
X152340000Y-88211252D02*
X152340000Y-86788748D01*
X154160000Y-88211252D02*
X154160000Y-86788748D01*
X178260000Y-81390580D02*
X178260000Y-81109420D01*
X177240000Y-81390580D02*
X177240000Y-81109420D01*
X173100000Y-83250000D02*
X173100000Y-79250000D01*
X176400000Y-83250000D02*
X173100000Y-83250000D01*
X181012742Y-94227500D02*
X181487258Y-94227500D01*
X181012742Y-95272500D02*
X181487258Y-95272500D01*
X181012742Y-92477500D02*
X181487258Y-92477500D01*
X181012742Y-93522500D02*
X181487258Y-93522500D01*
X166760000Y-75759420D02*
X166760000Y-76040580D01*
X165740000Y-75759420D02*
X165740000Y-76040580D01*
X163022500Y-61762742D02*
X163022500Y-62237258D01*
X161977500Y-61762742D02*
X161977500Y-62237258D01*
X161990000Y-67359420D02*
X161990000Y-67640580D01*
X160970000Y-67359420D02*
X160970000Y-67640580D01*
X164737258Y-84477500D02*
X164262742Y-84477500D01*
X164737258Y-85522500D02*
X164262742Y-85522500D01*
X181012742Y-87227500D02*
X181487258Y-87227500D01*
X181012742Y-88272500D02*
X181487258Y-88272500D01*
X164262742Y-86227500D02*
X164737258Y-86227500D01*
X164262742Y-87272500D02*
X164737258Y-87272500D01*
X170587742Y-128477500D02*
X171062258Y-128477500D01*
X170587742Y-129522500D02*
X171062258Y-129522500D01*
X139522500Y-108737258D02*
X139522500Y-108262742D01*
X138477500Y-108737258D02*
X138477500Y-108262742D01*
%LPC*%
D13*
X167715000Y-64125000D03*
X156285000Y-64125000D03*
D14*
X156285000Y-70475000D03*
D15*
X157555000Y-73015000D03*
D14*
X158825000Y-70475000D03*
X160095000Y-73015000D03*
X161365000Y-70475000D03*
X162635000Y-73015000D03*
X163905000Y-70475000D03*
X165175000Y-73015000D03*
X166445000Y-70475000D03*
X167715000Y-73015000D03*
D16*
X155275000Y-61585000D03*
X155275000Y-59555000D03*
X168725000Y-61585000D03*
X168725000Y-59555000D03*
D17*
X169875000Y-67175000D03*
X154125000Y-67175000D03*
D18*
X157320000Y-126220000D03*
X157320000Y-123680000D03*
X159860000Y-126220000D03*
X159860000Y-123680000D03*
X162400000Y-126220000D03*
X162400000Y-123680000D03*
X164940000Y-126220000D03*
X164940000Y-123680000D03*
X167480000Y-126220000D03*
X167480000Y-123680000D03*
X170020000Y-126220000D03*
X170020000Y-123680000D03*
X172560000Y-126220000D03*
X172560000Y-123680000D03*
X175100000Y-126220000D03*
X175100000Y-123680000D03*
X177640000Y-126220000D03*
X177640000Y-123680000D03*
X180180000Y-126220000D03*
X180180000Y-123680000D03*
X157320000Y-100820000D03*
X157320000Y-98280000D03*
X159860000Y-100820000D03*
X159860000Y-98280000D03*
X162400000Y-100820000D03*
X162400000Y-98280000D03*
X164940000Y-100820000D03*
X164940000Y-98280000D03*
X167480000Y-100820000D03*
X167480000Y-98280000D03*
X170020000Y-100820000D03*
X170020000Y-98280000D03*
X172560000Y-100820000D03*
X172560000Y-98280000D03*
X175100000Y-100820000D03*
X175100000Y-98280000D03*
X177640000Y-100820000D03*
X177640000Y-98280000D03*
X180180000Y-100820000D03*
X180180000Y-98280000D03*
D19*
X124646100Y-141668600D03*
D20*
X124646100Y-136588600D03*
D21*
X127000000Y-73250000D03*
X127000000Y-78330000D03*
D22*
X143256243Y-121250000D03*
D14*
X140756243Y-121250000D03*
D23*
X152420000Y-92620000D03*
X154960000Y-92620000D03*
X157500000Y-92620000D03*
X160040000Y-92620000D03*
X160040000Y-77380000D03*
X157500000Y-77380000D03*
X154960000Y-77380000D03*
X152420000Y-77380000D03*
D24*
X183000000Y-79660000D03*
X183000000Y-77120000D03*
X183000000Y-74580000D03*
X183000000Y-72040000D03*
X183000000Y-69500000D03*
X183000000Y-66960000D03*
D25*
X141752500Y-59767000D03*
X141752500Y-62307000D03*
X141752500Y-64847000D03*
X141752500Y-67347000D03*
X141752500Y-102947000D03*
X141752500Y-105487000D03*
X141752500Y-108027000D03*
D26*
X176000000Y-139000000D03*
D27*
X178540000Y-139000000D03*
X181080000Y-139000000D03*
D28*
X134500000Y-123015000D03*
D29*
X134500000Y-117935000D03*
D30*
X180251100Y-131503600D03*
D31*
X153696100Y-136629240D03*
X156236100Y-136629240D03*
X158776100Y-136629240D03*
X153696100Y-141627960D03*
X156236100Y-141627960D03*
X158776100Y-141627960D03*
D32*
X132750000Y-129000000D03*
D33*
X135250000Y-129000000D03*
X137750000Y-129000000D03*
X140250000Y-129000000D03*
X142750000Y-129000000D03*
D21*
X126500000Y-117960000D03*
X126500000Y-123040000D03*
D34*
X134750000Y-83500000D03*
D35*
X129750000Y-83500000D03*
X139950000Y-112900000D03*
X124550000Y-112900000D03*
D31*
X163221100Y-136629240D03*
X165761100Y-136629240D03*
X168301100Y-136629240D03*
X170841100Y-136629240D03*
X163221100Y-141627960D03*
X165761100Y-141627960D03*
X168301100Y-141627960D03*
X170841100Y-141627960D03*
X131471100Y-136629240D03*
X134011100Y-136629240D03*
X136551100Y-136629240D03*
X139091100Y-136629240D03*
X141631100Y-136629240D03*
X144171100Y-136629240D03*
X146711100Y-136629240D03*
X149251100Y-136629240D03*
X131471100Y-141627960D03*
X134011100Y-141627960D03*
X136551100Y-141627960D03*
X139091100Y-141627960D03*
X141631100Y-141627960D03*
X144171100Y-141627960D03*
X146711100Y-141627960D03*
X149251100Y-141627960D03*
D19*
X128710000Y-66750000D03*
D20*
X133790000Y-66750000D03*
D22*
X146000000Y-113500000D03*
D14*
X146000000Y-116000000D03*
D30*
X116751100Y-131503600D03*
X116751100Y-93503600D03*
D36*
X163675000Y-90250000D03*
X165325000Y-90250000D03*
D37*
X175900000Y-129000000D03*
X174250000Y-129000000D03*
D38*
X139000000Y-105825000D03*
X139000000Y-104175000D03*
D39*
X171750000Y-87412500D03*
X172250000Y-87412500D03*
X172750000Y-87412500D03*
X173250000Y-87412500D03*
X173750000Y-87412500D03*
X174250000Y-87412500D03*
D40*
X174937500Y-88100000D03*
X174937500Y-88600000D03*
X174937500Y-89100000D03*
X174937500Y-89600000D03*
X174937500Y-90100000D03*
X174937500Y-90600000D03*
D39*
X174250000Y-91287500D03*
X173750000Y-91287500D03*
X173250000Y-91287500D03*
X172750000Y-91287500D03*
X172250000Y-91287500D03*
X171750000Y-91287500D03*
D40*
X171062500Y-90600000D03*
X171062500Y-90100000D03*
X171062500Y-89600000D03*
X171062500Y-89100000D03*
X171062500Y-88600000D03*
X171062500Y-88100000D03*
D41*
X173000000Y-89350000D03*
D42*
X159500000Y-68275000D03*
X159500000Y-66725000D03*
D43*
X167475000Y-94250000D03*
X169025000Y-94250000D03*
D44*
X169000000Y-75125000D03*
X169000000Y-76675000D03*
X163500000Y-66725000D03*
X163500000Y-68275000D03*
D36*
X163675000Y-92000000D03*
X165325000Y-92000000D03*
X175425000Y-104250000D03*
X177075000Y-104250000D03*
D43*
X178975000Y-86000000D03*
X180525000Y-86000000D03*
D36*
X180425000Y-89500000D03*
X182075000Y-89500000D03*
D37*
X182075000Y-91250000D03*
X180425000Y-91250000D03*
D45*
X159500000Y-89625000D03*
X159500000Y-87500000D03*
D43*
X178975000Y-84250000D03*
X180525000Y-84250000D03*
D36*
X163675000Y-88500000D03*
X165325000Y-88500000D03*
D46*
X162500000Y-79675000D03*
X162500000Y-81325000D03*
D47*
X153466100Y-123423600D03*
X153466100Y-124073600D03*
X153466100Y-124723600D03*
X153466100Y-125373600D03*
X153466100Y-126023600D03*
X153466100Y-126673600D03*
X153466100Y-127323600D03*
X153466100Y-127973600D03*
X153466100Y-128623600D03*
X153466100Y-129273600D03*
X146466100Y-129273600D03*
X146466100Y-128623600D03*
X146466100Y-127973600D03*
X146466100Y-127323600D03*
X146466100Y-126673600D03*
X146466100Y-126023600D03*
X146466100Y-125373600D03*
X146466100Y-124723600D03*
X146466100Y-124073600D03*
X146466100Y-123423600D03*
D48*
X134300000Y-108150000D03*
D49*
X132000000Y-101850000D03*
D48*
X132000000Y-108150000D03*
X129700000Y-108150000D03*
D50*
X165275000Y-83250000D03*
X163725000Y-83250000D03*
D42*
X171750000Y-82025000D03*
X171750000Y-80475000D03*
X156500000Y-89275000D03*
X156500000Y-87725000D03*
D46*
X160500000Y-61175000D03*
X160500000Y-62825000D03*
D51*
X153250000Y-88975000D03*
X153250000Y-86025000D03*
D42*
X177750000Y-82025000D03*
X177750000Y-80475000D03*
D52*
X173900000Y-82350000D03*
X173900000Y-80150000D03*
X175600000Y-80150000D03*
X175600000Y-82350000D03*
D36*
X180425000Y-94750000D03*
X182075000Y-94750000D03*
X180425000Y-93000000D03*
X182075000Y-93000000D03*
D44*
X166250000Y-75125000D03*
X166250000Y-76675000D03*
D46*
X162500000Y-61175000D03*
X162500000Y-62825000D03*
D44*
X161480000Y-66725000D03*
X161480000Y-68275000D03*
D37*
X165325000Y-85000000D03*
X163675000Y-85000000D03*
D36*
X180425000Y-87750000D03*
X182075000Y-87750000D03*
X163675000Y-86750000D03*
X165325000Y-86750000D03*
X170000000Y-129000000D03*
X171650000Y-129000000D03*
D38*
X139000000Y-109325000D03*
X139000000Y-107675000D03*
M02*
